<svg xmlns="http://www.w3.org/2000/svg" viewBox="0 0 338.15 159.5"><defs><style>.a{fill:#231f20}.b{fill:#abb533}</style></defs><title>beanfield</title><path class="a" d="M0 83.66h8v22.35h.2c1.66-2.06 4.84-4.84 10.81-4.84 9.09 0 15.39 7.3 15.39 16.71s-5.9 16.71-15.72 16.71c-4.44 0-8.62-1.72-10.94-5.57h-.13v4.77H0zm17 24.66c-5.84 0-9.35 4.58-9.35 9.55s3.52 9.55 9.35 9.55 9.35-4.57 9.35-9.55-3.48-9.54-9.31-9.54zm27.49 12.34a8.25 8.25 0 0 0 8.6 7.56 10.45 10.45 0 0 0 8.55-4.32l5.7 4.32a16.56 16.56 0 0 1-13.46 6.36c-9.61 0-17.3-6.7-17.3-16.71s7.64-16.72 17.25-16.72c8.89 0 14.92 6.23 14.92 17.3v2.19zm16.31-6c-.07-4.64-3.12-7.56-8.09-7.56-4.71 0-7.62 3-8.22 7.56zm31.62 14.75h-.2c-2.26 3.58-6 5.17-10.21 5.17-5.9 0-11.6-3.25-11.6-9.55 0-10.35 12.07-11.07 20-11.07h2v-.81c0-3.91-3-6-7.29-6a12.54 12.54 0 0 0-8.49 3.32l-4.18-4.17c3.52-3.58 8.49-5.11 13.53-5.11 13.59 0 13.59 9.81 13.59 14.32v18.3h-7.16zm-.46-9.88H90.3c-4.37 0-11.94.33-11.94 4.91 0 2.92 3 4.18 5.57 4.18 5.44 0 8-2.85 8-7.3zm12.53-17.57h7.6v5.11h.13c1.46-3.18 4.44-5.9 9.75-5.9 8.55 0 11.6 6 11.6 12.53v20.09h-8v-16.11c0-3.51-.27-9.35-5.83-9.35-5.24 0-7.3 3.85-7.3 8.09v17.37h-8zm37.27 6.77h-6.57v-6.77h6.56v-4.51c0-8.81 2-14.59 11.87-14.59a25.18 25.18 0 0 1 5 .47l-.53 6.76a14.45 14.45 0 0 0-3.32-.46c-4.44 0-5.1 3.05-5.1 6.57v5.76h7.42v6.77h-7.36v25.06h-8z"/><path class="a" d="M162.64 86.38a4.78 4.78 0 1 1-5 4.77 4.88 4.88 0 0 1 5-4.77zm-3.91 15.58h7.92v31.83h-7.92zm19.78 18.7a8.25 8.25 0 0 0 8.56 7.56 10.45 10.45 0 0 0 8.55-4.32l5.71 4.32a16.57 16.57 0 0 1-13.46 6.36c-9.62 0-17.31-6.7-17.31-16.71s7.69-16.72 17.31-16.72c8.88 0 14.92 6.23 14.92 17.3v2.19zm16.32-6c-.07-4.64-3.12-7.56-8.09-7.56-4.71 0-7.63 3-8.23 7.56zm11.87-31h8v50.13h-8zm38.65 45.36h-.13c-2.32 3.84-6.5 5.57-10.94 5.57-9.82 0-15.71-7.29-15.71-16.71s6.29-16.73 15.38-16.73c6 0 9.15 2.79 10.81 4.84h.2V83.66h8v50.13h-7.56zm-9.48-1.59c5.84 0 9.35-4.57 9.35-9.55s-3.51-9.55-9.35-9.55-9.35 4.58-9.35 9.55 3.51 9.55 9.35 9.55z"/><path class="b" d="M65.77 40.47a47 47 0 0 0 30.76 44h10.2A65.12 65.12 0 0 1 69.5 25.69c0-1.27 0-2.52.11-3.77a46.66 46.66 0 0 0-3.84 18.55z"/><path class="b" d="M113.93 83.83a8.45 8.45 0 0 0 5.17-7.79V8.45A8.45 8.45 0 0 0 110.65 0H89.03a47.26 47.26 0 0 0-15.05 14 61.58 61.58 0 0 0 39.95 69.82zM82.88 0h-4.4a60.74 60.74 0 0 0-2.39 6.05A50.83 50.83 0 0 1 82.88 0zM56.33 59.61a64.89 64.89 0 0 1-1.1-59.62H43.09a8.45 8.45 0 0 0-8.45 8.45v67.59a8.45 8.45 0 0 0 8.45 8.46h26.82a61.55 61.55 0 0 1-13.58-24.88z"/><path class="b" d="M80.09 84.49a65.58 65.58 0 0 1-15-12.5 58.62 58.62 0 0 0 9.48 12.49zm7.11 0h1.19A50.24 50.24 0 0 1 70.8 12.71a63.89 63.89 0 0 1 2.61-9.24 58.09 58.09 0 0 0-14 54.86A62.11 62.11 0 0 0 87.2 84.49z"/><path class="b" d="M54.2 45.45c0-.69-.05-1.37-.05-2.06A61.43 61.43 0 0 1 72.09 0H59.01a61.44 61.44 0 0 0-4.8 45.46z"/><path class="a" d="M141.75 145.7h2.72l4.27 10.18h.08l4.27-10.18h2.72v13.45h-1.82v-11.06l-4.62 11.06h-1.22l-4.54-11.06v11.06h-1.82zm20.6 0h8.68v1.71h-6.86v4h6.38v1.74h-6.38v4.31h7.2v1.69h-9zm17.67 1.71h-4.33v-1.71h10.49v1.71h-4.33v11.74h-1.82zm11.34-1.71h4.73c3.44 0 4.31 2.07 4.31 3.76a3.61 3.61 0 0 1-3.31 3.55l3.82 6.14h-2.28l-3.42-5.93h-2v5.93h-1.82zm1.82 5.93h2.39c1.44 0 2.89-.34 2.89-2.17s-1.44-2.17-2.89-2.17h-2.39zm12.2.79a7 7 0 1 1 7 7.07 6.84 6.84 0 0 1-7-7.07zm12.08 0a5.08 5.08 0 1 0-5.07 5.36 5.06 5.06 0 0 0 5.07-5.36zm17.18-3.81a4.13 4.13 0 0 0-3.25-1.54c-3 0-5 2.41-5 5.47a5 5 0 0 0 5 5.24 4.14 4.14 0 0 0 3.51-1.8l1.54 1.16a6.26 6.26 0 0 1-5.09 2.36 6.93 6.93 0 0 1-6.91-7 6.81 6.81 0 0 1 7-7.18 5.9 5.9 0 0 1 4.71 2.09zm6.45 3.81a7 7 0 1 1 7 7.07 6.84 6.84 0 0 1-7-7.07zm12.08 0a5.08 5.08 0 1 0-5.07 5.36 5.06 5.06 0 0 0 5.05-5.36zm7.79-6.72h2.39l7.41 11.06V145.7h1.82v13.45h-2.32l-7.48-11.06v11.06h-1.82zm18.37 0h2.39l7.37 11.06V145.7h1.82v13.45h-2.32l-7.48-11.06v11.06h-1.82zm18.37 0h8.68v1.71h-6.86v4h6.38v1.74h-6.38v4.31h7.2v1.69h-9zm24.22 2.91a4.13 4.13 0 0 0-3.25-1.54c-3 0-5 2.41-5 5.47a5 5 0 0 0 5 5.24 4.14 4.14 0 0 0 3.51-1.8l1.54 1.16a6.26 6.26 0 0 1-5.09 2.36 6.92 6.92 0 0 1-6.91-7 6.81 6.81 0 0 1 7-7.18 5.9 5.9 0 0 1 4.71 2.09zm10.08-1.2h-4.33v-1.71h10.49v1.71h-4.33v11.74h-1.82z"/></svg>