<svg xmlns="http://www.w3.org/2000/svg" width="550" height="192.5" viewBox="0 0 550 192.5"><defs><clipPath id="a"><path d="M0 0h440v154H0V0z"/></clipPath><clipPath id="b"><path d="M408.499 138.805c-28.616 31.563-212.745 3.172-291.048-13.934l-1.824-.394a.694.694 0 0 1 .24-1.366l1.81.354c64.873 11.55 199.781 27.565 228.811-1.221 8.858-8.78 6.744-20.095-3.522-33.442 5.537-3.558 9.479-9.152 11.255-16.152 40.09 26.67 67.028 52.092 54.278 66.155zM289.345 42.347a.457.457 0 0 0-.057-.041c-18.153-12.851-39.658-26.351-62.791-40.517l-.914-.533a.691.691 0 0 1 .793-1.129l.771.406c19.621 10.24 42.156 22.396 64.832 34.867.124.066.242.135.364.201a28.318 28.318 0 0 0-2.998 6.746"/></clipPath><clipPath id="c"><path d="M.06 153.027h439.867V0H.06v153.027z"/></clipPath><clipPath id="d"><path d="M0 0h440v154H0V0z"/></clipPath><linearGradient x2="1" gradientUnits="userSpaceOnUse" gradientTransform="scale(266.633 -266.633) rotate(-28 -.11 -1.248)" id="e"><stop offset="0" stop-color="#b4131d"/><stop offset="1" stop-color="#f8e2db"/></linearGradient><clipPath id="f"><path d="M0 0h440v154H0V0z"/></clipPath><clipPath id="g"><path d="M.06 153.027h439.867V0H.06v153.027z"/></clipPath><clipPath id="h"><path d="M0 0h440v154H0V0z"/></clipPath><clipPath id="i"><path d="M0 0h440v154H0V0z"/></clipPath></defs><g clip-path="url(#a)" fill="#b4131d" transform="matrix(1.25 0 0 -1.25 0 192.5)"><path d="M292.343 35.601c-.122-.066-.24-.135-.364-.201-19.633-10.795-39.147-21.348-56.772-30.639 22.708 10.254 41.188 19.274 58.687 28.586a26.122 26.122 0 0 0-1.551 2.254m118.651 99.134c5.288-14.585-20.299-37.82-56.773-62.085.318-1.264.585-2.557.758-3.911l.278.168c45.039 27.649 69.47 45.004 55.737 65.828"/></g><g clip-path="url(#b)" transform="matrix(1.25 0 0 -1.25 0 192.5)"><g clip-path="url(#c)"><g clip-path="url(#d)"><path d="M0 0h440v154H0V0z" fill="url(#e)"/></g></g></g><g clip-path="url(#f)" fill="#0d4d84" transform="matrix(1.25 0 0 -1.25 0 192.5)"><path d="M291.542 51.23c-.658 18.951 14.191 38.332 35.759 38.332 14.427 0 23.868-9.613 24.394-24.333.691-19.989-13.179-38.339-35.758-38.339-14.429 0-23.87 9.594-24.395 24.34zm9.383-.596c.371-11.107 7.393-20.199 16.56-20.199 17.76 0 25.32 21.805 24.793 36.378-.375 11.131-7.585 20.207-16.736 20.207-15.277 0-25.138-21.715-24.617-36.386M105.978 67.897c-.078-1.743-.376-3.268-.843-5.93l-3.175-17.805c-.272-1.578.314-2.823 1.783-3.67l-.097-.695-18.164.025-.164 4.527c-2.644-1.595-5.836-2.941-8.725-3.73-2.877-.738-5.207-1.067-8.703-1.067-5.868 0-9.229.61-11.545 2.643-2.359 2.1-3.499 3.488-3.387 6.375.091 1.66.95 3.791 2.196 5.283 1.258 1.516 2.97 2.504 4.834 3.377 1.874.894 4.078 1.54 7.288 2.045 3.214.524 7.686 1.043 13.679 1.543 3.148.262 5.066.993 5.969 1.35 1.251.486 1.741 1.024 1.926 2.043.335 1.832-.25 2.873-2.678 3.357-6.546 1.287-18.808-.832-25.13-2.414l3.436 9.267c8.336 1.217 16.152 1.996 24.374 1.996 13.072 0 17.257-3.73 17.126-8.52zm-18.75-11.661c-.772-.289-1.766-.578-3-.836-1.23-.277-3.48-.678-6.747-1.193-2.25-.354-3.809-.825-4.7-1.461-.851-.633-1.351-1.383-1.495-2.299-.177-.979.144-1.76.991-2.371.861-.602 2.306-.912 4.347-.912 1.528 0 3.028.248 4.48.711 1.468.48 2.704 1.134 3.66 1.943.698.604 1.199 1.373 1.572 2.295.217.605.527 1.973.892 4.123m78.665 27.373c.52 2.924 5.136 5.298 10.292 5.298 5.165 0 8.935-2.374 8.436-5.298-.544-2.925-5.151-5.295-10.321-5.295-5.182 0-8.931 2.37-8.407 5.295zm-7.268-43.812l6.304 35.573h17.39l-6.302-35.573h-17.392"/></g><g clip-path="url(#g)" transform="matrix(1.25 0 0 -1.25 0 192.5)"><g clip-path="url(#h)" fill="#0d4d84"><path d="M262.825 67.828c-.072-1.746-.381-3.285-.859-5.924l-3.15-17.826c-.274-1.571.309-2.807 1.771-3.682l-.108-.617-18.157-.035-.139 4.537c-2.655-1.608-5.865-2.945-8.732-3.725-2.891-.759-5.22-1.07-8.736-1.07-5.861 0-9.197.588-11.522 2.635-2.368 2.105-3.511 3.486-3.383 6.365.064 1.672.936 3.816 2.188 5.285 1.258 1.533 2.972 2.504 4.847 3.383 1.872.881 4.088 1.534 7.258 2.065 3.229.5 7.717 1.043 13.704 1.543 3.119.262 5.039.971 5.934 1.314 1.268.491 1.768 1.039 1.954 2.063.323 1.795-.251 2.865-2.665 3.353-6.576 1.298-18.807-.834-25.128-2.404l3.418 9.263c8.369 1.222 16.145 2.004 24.379 2.004 13.065 0 17.233-3.747 17.126-8.527zM244.081 56.15a31.265 31.265 0 0 0-3.018-.836c-1.218-.291-3.47-.65-6.756-1.187-2.236-.356-3.824-.827-4.682-1.465-.834-.612-1.331-1.371-1.508-2.287-.182-.985.177-1.778.993-2.368.878-.603 2.333-.898 4.376-.898 1.515 0 2.999.227 4.46.686 1.483.496 2.715 1.128 3.677 1.945.668.603 1.184 1.389 1.547 2.31.224.596.526 1.967.911 4.1m-193.5-3.566c-5.66-1.123-8.845-1.555-14.442-1.555-8.309 0-14.908 4.125-14.551 11.686.254 5.035 6.222 15.664 21.381 15.664 4.77 0 8.5-.845 13.518-3.704l2.201 12.356c-6.82 2.579-11.338 2.966-17.194 2.902C21.631 89.72 2.539 80.684.177 62.318c-2.408-18.664 20.388-23.357 30.509-23.314 5.844.017 11.918.255 17.589.843l2.306 12.737"/></g></g><g clip-path="url(#i)" fill="#0d4d84" transform="matrix(1.25 0 0 -1.25 0 192.5)"><path d="M191.903 75.577l1.25 7.243 18.19 3.959-1.937-11.202h8.908l-1.692-7.166-8.641.02-5.25-28.609s-17.512.115-17.574 0l5.228 28.54h-6.612l1.342 7.215h6.788m88.576-35.755l-17.712-.025 8.909 49.634 17.255-.487-8.452-49.122m-176.52-12.309l8.463 47.681h15.273l-1.183-6.086c1.326 1.817 3.443 3.309 6.364 4.526 2.947 1.205 6.264 2.099 9.865 2.099 3.985 0 6.444-.214 9.427-1.759 2.967-1.557 5.033-3.811 6.162-6.751 1.144-2.893 1.382-6.147.762-9.686-1.032-5.875-3.9-10.512-8.595-13.916-4.663-3.403-8.854-4.297-14.847-4.321-2.122 0-3.895.221-5.369.581-1.441.376-2.586.833-3.463 1.39-.835.563-1.722 1.34-2.864 2.586l-2.844-16.344h-17.151zm31.665 39.52c-2.279 0-4.341-.687-6.176-2.07-1.815-1.387-2.971-3.402-3.44-6.092-.547-3.106-.226-5.332 1.003-6.713 1.244-1.365 3.03-2.053 5.377-2.053 1.58 0 3.221.283 4.426.879 1.488.787 2.515 1.619 3.404 2.926.96 1.381 1.589 2.914 1.912 4.696.498 2.808.077 4.914-1.226 6.3-1.267 1.426-3.013 2.127-5.28 2.127m285.582-26.266l1.378-.933c-3.479-7.084-10.57-12.787-18.892-12.787-6.805 0-12.384 4.529-12.68 13.039-.55 15.248 13.734 29.413 25.435 29.413 5.018 0 9.67-2.192 9.878-7.595.432-12.125-16.596-15.834-27.813-16.086-.366-1.266-.501-2.541-.436-4.479.185-5.027 3.23-9.257 9.517-9.257 5.433 0 10.867 4.375 13.613 8.685zm-1.527 21.899c-.099 2.869-1.539 4.795-4.5 4.795-7.133 0-14.718-13.971-16.028-19.606 11.703 0 20.812 6.971 20.528 14.811"/><path d="M351.438 63.067c1.208.16 3.152.373 3.992.373 1.282 0 2.483-.243 2.543-1.508.023-.752-1.333-6.153-1.62-7.407l-2.712-11.961c-1.094-4.894-2.284-10.019-3.336-14.068h6.968l3.916 18.947c11.954 12.45 16.552 16.508 19.375 16.508 1.267 0 2.144-.666 2.204-2.185.07-2.192-1.287-7.167-1.76-8.593l-3.997-13.82c-.908-3.105-1.58-5.904-1.518-7.906.122-3.035 1.956-4.383 4.679-4.383 5.094 0 8.788 5.307 12.021 10.522l-.946 1.711c-1.309-2.098-4.327-6.674-6.71-6.674-.755 0-1.464.502-1.489 1.765-.072 1.618.611 4.03 1.079 5.633l4.44 16.19c1.19 4.459 1.761 7.328 1.732 8.856-.111 3.023-1.877 4.436-4.58 4.436-4.581 0-10.675-3.349-23.563-18.185h-.184l1.623 7.241c.881 3.959 1.742 8.09 2.579 10.944-4.456-1.606-10.848-3.403-14.797-4.167l.061-2.269m82.21 13.295c.931 0 1.738.069 1.738 1.176 0 .883-.787 1.049-1.555 1.049h-1.459v-2.225h1.276zm-1.276-4.005h-1.101v7.138h2.727c1.69 0 2.528-.621 2.528-2.021 0-1.289-.795-1.832-1.857-1.977l2.036-3.14h-1.221l-1.875 3.097h-1.237v-3.097zm1.31-1.6c2.792 0 5.006 2.185 5.006 5.187 0 2.93-2.214 5.141-5.006 5.141-2.849 0-5.045-2.211-5.045-5.141 0-3.002 2.196-5.187 5.045-5.187zm-6.285 5.187c0 3.551 2.869 6.164 6.285 6.164 3.373 0 6.245-2.613 6.245-6.164 0-3.587-2.872-6.212-6.245-6.212-3.416 0-6.285 2.625-6.285 6.212"/></g></svg>