<svg xmlns="http://www.w3.org/2000/svg" viewBox="0 0 566.93 99.61"><defs><style>.a{fill:#fff}.b{fill:#0093c8}.c{fill:#a3cf60}</style></defs><title>eventmobi</title><path class="a" d="M116.16 53.24l-.05-31.22c0-4.29-3.55-9.31-7.26-10.31a118.5 118.5 0 0 0-19.32-3.42 127.5 127.5 0 0 0-21-.19c-4.6.35-9 5.27-9 10.12l-.07 21.37c11.28 4.09 25.56 9.1 41.49 11.64 5.19.83 10.26 1.49 15.21 2.01zm-25.47 7.21a275.13 275.13 0 0 1-31.23-6.76v21.9c0 4.88 4.32 9.94 8.83 10.37a128.44 128.44 0 0 0 21.17.21 116.52 116.52 0 0 0 19.31-3.06c3.82-1 7.36-5.95 7.35-10.27v-9.4h.28c-8.22-.61-16.86-1.58-25.71-2.99z"/><path class="b" d="M122.38 63.7c-2.21-.11-6.37-.38-6.2-.37v9.4c0 4.33-3.53 9.31-7.35 10.27a116.53 116.53 0 0 1-19.31 3.06 128.22 128.22 0 0 1-21.17-.21c-4.51-.43-8.84-5.48-8.83-10.37V53.59c.17 0-5.43-1.57-8.2-2.47v30.77c0 8.53 7.08 16.83 15.82 17.43a130 130 0 0 0 42.78-4.2c7-2 12.47-10.21 12.46-17.53.02-3.85.01-8.66 0-13.89zM59.55 18.19c0-4.85 4.44-9.77 9-10.12a127.51 127.51 0 0 1 21 .19 118.5 118.5 0 0 1 19.32 3.42c3.71 1 7.25 6 7.26 10.31l.06 31.24c2.09.27 4.16.52 6.19.74 0-11.63-.05-23.81-.07-31.88 0-7.27-5.46-15.46-12.46-17.46A130.51 130.51 0 0 0 67.3.19c-8.69.53-15.84 8.69-15.84 17.13V36.2c2.43 1.16 5.15 2.29 8 3.39zm347.47 67.26h-14.05V50.83q0-4.89-3-7.13a10.68 10.68 0 0 0-6.62-2.24 10.27 10.27 0 0 0-6.52 2.24q-2.85 2.24-2.85 7.13v34.62h-14.21V53.68q0-13.85 7.23-18.54a31.66 31.66 0 0 1 16-5.09 41.27 41.27 0 0 1 9.16 1 19.26 19.26 0 0 1 8.15 4.07 18.08 18.08 0 0 1 7.23-3.77 40.61 40.61 0 0 1 8.66-1.32 30.64 30.64 0 0 1 16.5 4.68q7.54 4.69 7.54 18.94v31.8h-7.13a6.63 6.63 0 0 1-6.93-6.93V50.83q0-4.89-3-7.13a10.88 10.88 0 0 0-13.24 0q-3 2.24-3 7.13v34.62zm44.79-4.86a20.14 20.14 0 0 1-6.11-9.88 45.43 45.43 0 0 1-1.83-12.94 40.94 40.94 0 0 1 1.53-11 22.74 22.74 0 0 1 4.78-9.18 21.17 21.17 0 0 1 13.64-7.23 31.43 31.43 0 0 1 15.07 1.33 20.74 20.74 0 0 1 11.4 10.58 33.84 33.84 0 0 1 3.46 15.69 38.78 38.78 0 0 1-1.43 11.2 28.63 28.63 0 0 1-3.67 7.94 20.32 20.32 0 0 1-12.42 8.35 27.66 27.66 0 0 1-13.54.3 23.69 23.69 0 0 1-10.88-5.16zm9.77-35.85q-4.28 4.69-3.87 13.95t3.47 12.9a9.1 9.1 0 0 0 4.28 2.76 9.74 9.74 0 0 0 6.21.2 10.42 10.42 0 0 0 5.6-4.58q2.44-3.67 2.65-11.81 0-7.34-2.34-11a10.64 10.64 0 0 0-5.4-4.69 10 10 0 0 0-6.11-.1 10.69 10.69 0 0 0-4.48 2.34zm49.45-22.63V38.4a17.21 17.21 0 0 1 6.52-6.31 18.23 18.23 0 0 1 9-2q9.57 0 15.68 7.94t6.08 20.56q0 12.63-6.11 20.57a17 17 0 0 1-8.25 5.6 32.4 32.4 0 0 1-10.29 1.73 34.19 34.19 0 0 1-18.12-5.09q-8.36-5.1-8.35-19.55V15.18h6.93a7 7 0 0 1 6.92 6.93zm23.22 35.85q0-7.34-3.05-11.41a9.73 9.73 0 0 0-8.35-4.28 10.29 10.29 0 0 0-8.76 4.08q-3.06 4.28-3.06 11.61 0 8.55 2.85 12.42a9.9 9.9 0 0 0 8.58 4.27 10.1 10.1 0 0 0 8.76-4.28q3.03-4.27 3.03-12.42zm18.42-42.58H560a7 7 0 0 1 6.92 6.93v4.28h-14.25zm0 15.89H560a6.95 6.95 0 0 1 6.92 6.93v47.25h-14.25z"/><path class="c" d="M219.28 31.27q-4.89 0-6.52 4.89l-9.57 33.2-10.8-38.09h-15.07l18.94 54.18h14.46l19.14-54.17zm33.76-1.22q-11.58 0-18.13 7.54-6.31 7.33-6.31 20.37 0 13.65 6.52 21 6.52 7.53 18.12 7.53 9.57 0 15.88-4.68a22.23 22.23 0 0 0 8.55-13h-10.21a6.08 6.08 0 0 0-3.77 1 4.37 4.37 0 0 0-1.53 1.63l-1.12 1.12a2.91 2.91 0 0 1-1.12.71 11.59 11.59 0 0 1-5.91 1.42q-5.3 0-7.94-3.25c-1.9-2-2.92-5.16-3.05-9.37h35.23a3.52 3.52 0 0 0 .21-1.48v-2.23q0-13.44-6.51-21-6.69-7.31-18.91-7.31zm-10 22.81q.2-5.29 3.05-8.15a9.94 9.94 0 0 1 7.37-2.85q4.89 0 7.53 2.85 2.44 2.65 2.85 8.15zm78.59-18.12a30.63 30.63 0 0 0-16.5-4.68 31.65 31.65 0 0 0-16 5.09q-7.23 4.69-7.23 18.54v31.76h14.26V50.83q0-4.89 2.85-7.13a10.27 10.27 0 0 1 6.52-2.24 10.68 10.68 0 0 1 6.62 2.24q3 2.24 3 7.13v27.69a6.63 6.63 0 0 0 6.92 6.93h7.13V53.68q-.04-14.26-7.57-18.94zm28.68 6.51a6.84 6.84 0 0 0 4.89-1.93 6.58 6.58 0 0 0 2-5v-2.85h-8.35v-9.16a6.67 6.67 0 0 0-2-4.88 6.45 6.45 0 0 0-4.68-2h-7.33v59.83q0 9.37 7.84 10a105.79 105.79 0 0 0 14.56.2V74.85h-4.28c-2.72 0-4.07-1.15-4.07-3.46V41.25zm-207.26 8.62a10.27 10.27 0 0 1 2.64-5.1 9.94 9.94 0 0 1 7.33-2.85q4.89 0 7.53 2.85a11 11 0 0 1 2.46 5.32v.08a22.1 22.1 0 0 1 .38 2.74h-.08c0 .44.09.87.13 1.3 6.08-.93 10.82-2.4 13.77-4.4a26.28 26.28 0 0 0-5.68-12.38q-6.72-7.34-18.94-7.33-11.61 0-18.12 7.53-5.47 6.34-6.19 17c4.9.41 9.59.65 14 .73a16.8 16.8 0 0 1 .77-5.49zM4.35 25.53a8.83 8.83 0 0 0-3.51 3.06c-4.91 8 12.13 19.94 38.15 28 19.19 6 48.38 6 48.38 6a148.4 148.4 0 0 1-33-4.82C22.98 50 1.08 35.78 4.35 25.53z"/><path class="c" d="M181.07 47.72c-3.61 10.27-39.44 13.37-80.04 6.87s-70.57-20-66.99-30.27c0 0 1.13-5.29 11.53-8.83v-2.15c-16.33 1.63-27.51 5.68-29.65 11.79-4.29 12.21 29.22 28 74.82 35.26a286.08 286.08 0 0 0 37.84 3.54c.77 6.23 2.81 11.24 6.15 15q6.52 7.53 18.12 7.53 9.57 0 15.88-4.68a22.23 22.23 0 0 0 8.55-13h-10.17a6.08 6.08 0 0 0-3.77 1 4.37 4.37 0 0 0-1.53 1.63l-1.12 1.12a2.9 2.9 0 0 1-1.12.71 11.59 11.59 0 0 1-5.91 1.42q-5.3 0-7.94-3.25a10.34 10.34 0 0 1-2.23-4c0-.08 0-.2-.06-.28a19.15 19.15 0 0 1-.62-3.24c21-.94 35.79-5.27 38.29-12.4a6.58 6.58 0 0 0 .09-4.09 4.1 4.1 0 0 1-.12.32zm-48.8 16.27zm3.61 0z"/></svg>