<svg xmlns="http://www.w3.org/2000/svg" viewBox="0 0 107.52 29.64"><defs><style>.a{fill:url(#a)}</style><linearGradient id="a" x1="342.17" y1="305.87" x2="449.68" y2="305.87" gradientUnits="userSpaceOnUse"><stop offset="0" stop-color="#3dbb97"/><stop offset="1" stop-color="#c1d959"/></linearGradient></defs><title>hover</title><path class="a" d="M12.77 8.42c-2.82 0-5.06.78-6.31 2.48V0H0v29.21h6.46v-10.9c0-2.58 1.53-4 4.12-4 2.29 0 3.4 1.29 3.4 3.58v11.32h6.45V17.46c-.01-5.79-3.22-9.04-7.66-9.04zm21 0c-6.31 0-11.24 4.44-11.24 10.66s4.93 10.56 11.24 10.56 11.19-4.4 11.19-10.56-4.9-10.66-11.21-10.66zm0 15.77c-2.87 0-4.64-2.1-4.64-5.11s1.7-5.13 4.62-5.13 4.59 2.05 4.59 5.11-1.72 5.14-4.59 5.14zM70.26 8.85h-5.43a6.89 6.89 0 0 0-6.24 4.46l-.76 1.64c-.91 2.06-1.58 3.54-1.58 3.54l-.26.87-.26-.87s-.67-1.48-1.58-3.54l-.73-1.61a6.89 6.89 0 0 0-6.24-4.46h-5.42s2.18.61 4.51 4.49 8.56 16.27 8.56 16.27h2.34s6.26-12.49 8.55-16.31 4.52-4.48 4.52-4.48zm8.34-.43c-6.31 0-11.24 4.4-11.24 10.56s4.69 10.66 12 10.66c4.26 0 6.75-1.29 8.7-3l-3.68-4a8.84 8.84 0 0 1-5.12 1.63c-2.92 0-4.64-1.2-5.26-3.3h15.45c.38-7.1-3.55-12.55-10.87-12.55zm-4.54 8.64c.53-2.44 2.25-3.58 4.78-3.58s4 1.34 4.26 3.58zm30.12-8.64a6.2 6.2 0 0 0-5.69 2.93v-2.5H92v20.36h6.46v-9c0-4.35 1.58-5.69 4.49-5.69a5.66 5.66 0 0 1 2.49.62l2.06-5.88a7.35 7.35 0 0 0-3.33-.84z"/></svg>