<svg xmlns="http://www.w3.org/2000/svg" viewBox="0 0 334.8 237.03"><defs><style>.a{fill:#44c8f5}.b{fill:#636466}</style></defs><title>points</title><path class="a" d="M53.64 26.83A26.82 26.82 0 1 1 26.82 0a26.82 26.82 0 0 1 26.82 26.83m58.72 0A26.82 26.82 0 1 1 85.5 0a26.82 26.82 0 0 1 26.82 26.82M53.64 85.54a26.82 26.82 0 1 1-26.82-26.82 26.82 26.82 0 0 1 26.82 26.82m58.72 0A26.82 26.82 0 1 1 85.5 58.72a26.82 26.82 0 0 1 26.82 26.82m-85.55 31.9C11.9 117.44 0 128.67 0 144.16s11.91 26.92 26.77 26.92a26.43 26.43 0 0 0 26.87-26.92c0-15.49-12-26.72-26.87-26.72m158.52-8.38a7.21 7.21 0 1 0-7.21-7.21 7.21 7.21 0 0 0 7.21 7.21"/><path class="b" d="M144.5 117.44c-14.86 0-26.77 11.23-26.77 26.72s11.91 26.92 26.77 26.92a26.43 26.43 0 0 0 26.87-26.92c0-15.49-12.01-26.72-26.87-26.72zm0 43.67a16.85 16.85 0 1 1 16.88-16.91 16.55 16.55 0 0 1-16.88 16.91zm-59-43.67c-14.84 0-26.73 11.2-26.77 26.64v42.46h9.59v-21.47a26.9 26.9 0 0 0 17.18 6 26.43 26.43 0 0 0 26.87-26.92c-.01-15.47-12.02-26.71-26.87-26.71zm0 43.67a16.85 16.85 0 1 1 16.88-16.91 16.55 16.55 0 0 1-16.88 16.91zm167.68-1.89v-22.19c0-13.07-5.47-19.65-17.62-19.65a20.86 20.86 0 0 0-19.25 11.75h-.2a21.53 21.53 0 0 0 .2-2.94v-1.92c0-3.75-2.13-5.67-6.48-5.67h-9.43v8.41h4.15a2 2 0 0 1 2.23 2.23v40.62h9.83v-24a21 21 0 0 1 .91-6.89 16.61 16.61 0 0 1 16.21-12.56c8.2 0 9.62 5.67 9.62 12.86v24.11c0 4.56 1.92 6.48 6.48 6.48h7.57v-8.41h-2a2 2 0 0 1-2.22-2.23zm-68-40.62h-9.68v8.41h4.15a2 2 0 0 1 2.23 2.23v34.14c0 4.56 1.92 6.48 6.48 6.48h3.24v-44.78c.01-4.56-1.91-6.46-6.47-6.46zM277.5 150v-23.5h12.26v-7.88H277.5v-14.1h-9.62v14.1h-6.89v7.9h6.69v24.62c0 17.12 13.07 19.14 19.55 19.14a25.19 25.19 0 0 0 3.44-.2v-8.71a11.81 11.81 0 0 1-2.33.2c-3.71-.02-10.84-1.34-10.84-11.57zm29.3-18.64c0-4.05 3.75-6.08 9.52-6.08a13.25 13.25 0 0 1 4.09.67 6.26 6.26 0 0 0-.14 1.3 6.36 6.36 0 1 0 11.61-3.6c-2.73-4.83-10.79-6.27-15.87-6.27-10.43 0-19 4.56-19 14.38 0 16.51 28 15.5 28 24.71 0 4.46-4.15 6.59-8.91 6.59-9.42 0-15.5-7.6-15.5-7.6l-5.1 6.59s6.79 9 20.46 9c10.74 0 18.84-5.87 18.84-15-.01-17.09-27.96-14.96-27.96-24.69zM127.2 210.3h2.48l7.91 11.84 7.91-11.84h2.48V232h-2.48v-17.57l-7.91 11.63h-.09l-7.91-11.6v17.55h-2.39zm23.45 13.77v-.06a8.36 8.36 0 0 1 16.71-.06v.06a8.32 8.32 0 0 1-8.4 8.37 8.21 8.21 0 0 1-8.31-8.31zm14.26 0v-.06a6.07 6.07 0 0 0-6-6.26 5.92 5.92 0 0 0-5.86 6.2v.06a6 6 0 0 0 5.92 6.23 5.91 5.91 0 0 0 5.95-6.17zm4.96-8.09h2.39v4.19a6.86 6.86 0 0 1 6.54-4.46v2.57h-.19c-3.5 0-6.36 2.51-6.36 7.35v6.39h-2.39zm18.88 14.32a6.63 6.63 0 0 0 5.05-2.26l1.49 1.33a8.27 8.27 0 0 1-6.6 3 8 8 0 0 1-8-8.37c0-4.65 3.26-8.37 7.69-8.37 4.74 0 7.47 3.78 7.47 8.5v.84h-12.74a5.6 5.6 0 0 0 5.64 5.33zm4.68-7.26c-.28-2.91-2-5.39-5.12-5.39-2.76 0-4.87 2.29-5.21 5.39zm16.76 4.72v-9.67h-2.23v-2.11h2.23v-4.84h2.39v4.84h5.09v2.11h-5.09v9.36a2.37 2.37 0 0 0 2.7 2.67 5 5 0 0 0 2.33-.56v2a6 6 0 0 1-2.88.68c-2.59.05-4.54-1.23-4.54-4.48zm8.17-3.69v-.06a8.36 8.36 0 0 1 16.71-.06v.06a8.32 8.32 0 0 1-8.4 8.37 8.21 8.21 0 0 1-8.31-8.31zm14.26 0v-.06a6.07 6.07 0 0 0-6-6.26 5.92 5.92 0 0 0-5.86 6.2v.06a6 6 0 0 0 5.92 6.23 5.91 5.91 0 0 0 5.95-6.17zm4.88 10.73l1.08-1.86a10.24 10.24 0 0 0 6.17 2c3.53 0 5.83-2 5.83-5.71v-1.89a7.6 7.6 0 0 1-6.29 3.38 7.41 7.41 0 0 1-7.53-7.5v-.06a7.59 7.59 0 0 1 13.8-4.34v-2.88h2.39v13.28a7.72 7.72 0 0 1-2 5.67 8.43 8.43 0 0 1-6.11 2.14 12.57 12.57 0 0 1-7.34-2.23zm13.15-11.57v-.06a5.62 5.62 0 0 0-5.89-5.43 5.3 5.3 0 0 0-5.55 5.4v.06a5.43 5.43 0 0 0 5.55 5.46 5.66 5.66 0 0 0 5.9-5.43zm13.77 7.07a6.64 6.64 0 0 0 5.05-2.26l1.49 1.33a8.27 8.27 0 0 1-6.6 3 8 8 0 0 1-8-8.37c0-4.65 3.25-8.37 7.69-8.37 4.74 0 7.47 3.78 7.47 8.5v.84h-12.74a5.6 5.6 0 0 0 5.64 5.33zm4.68-7.26c-.28-2.91-2-5.39-5.12-5.39-2.76 0-4.87 2.29-5.21 5.39zm6.51 4.72v-9.67h-2.23v-2.11h2.23v-4.84H278v4.84h5.08v2.11H278v9.36a2.37 2.37 0 0 0 2.7 2.67 5 5 0 0 0 2.33-.56v2a6 6 0 0 1-2.88.68c-2.58.05-4.54-1.23-4.54-4.48zm10.76-18.39h2.39v9.4a6.07 6.07 0 0 1 5.49-3.13c3.88 0 6.14 2.6 6.14 6.42v10H298v-9.44c0-3-1.61-4.84-4.43-4.84a4.72 4.72 0 0 0-4.81 5v9.18h-2.39zm25.23 20.93a6.64 6.64 0 0 0 5.05-2.26l1.49 1.33a8.27 8.27 0 0 1-6.6 3 8 8 0 0 1-8-8.37c0-4.65 3.25-8.37 7.69-8.37 4.74 0 7.47 3.78 7.47 8.5v.84h-12.74a5.6 5.6 0 0 0 5.64 5.33zm4.68-7.26c-.28-2.91-2-5.39-5.12-5.39-2.76 0-4.87 2.29-5.21 5.39zm5.68-7.06h2.39v4.19a6.86 6.86 0 0 1 6.54-4.46v2.57h-.19c-3.5 0-6.36 2.51-6.36 7.35v6.39h-2.39zm8.54 12.77h2.85v3.26h-2.85z"/></svg>