<svg xmlns="http://www.w3.org/2000/svg" viewBox="0 0 411 85"><defs><style>.a{fill:#b2bb1e}.b{fill:#5f604b}.c{fill:#939481}.d{fill:none}</style></defs><title>survey-monkey</title><path class="a" d="M76.78 36.36a7.09 7.09 0 0 0-1.67.21 21.53 21.53 0 0 0-17.69-16c-.13-1.45.43-3.73 4.06-5.93l-.11-.21s-6.09 1.93-7.47 5.73c.06-1.19-.37-3-3-4.24 0 0-.21.07-.1.17a4.23 4.23 0 0 1 1.49 4.35 21.51 21.51 0 0 0-18.87 16.12 7 7 0 1 0 .88 13.27 21.4 21.4 0 0 0 2.27 4.22l5.82-3.92h-.08a14.27 14.27 0 0 1-2.63-7.75c-.17-3.18.6-6.35 2.64-8.2 4.19-3.57 8.75-1.94 11.61 1.48h.76c2.86-3.35 7.37-4.91 11.53-1.38 2 1.84 2.79 5 2.64 8.09a14.32 14.32 0 0 1-2.62 7.84l5.74 3.89a21.57 21.57 0 0 0 2.26-4.22 7 7 0 1 0 2.55-13.48M32 44.74a1.4 1.4 0 0 1 0-2.8 1.43 1.43 0 0 1 .79.24 20.28 20.28 0 0 0 .15 2.19 1.4 1.4 0 0 1-.94.37m44.56 0a1.4 1.4 0 0 1-.94-.36 21.26 21.26 0 0 0 .15-2.2 1.4 1.4 0 0 1 2.19 1.16 1.4 1.4 0 0 1-1.4 1.4"/><path class="b" d="M99 44.43a11.78 11.78 0 0 0 8.49 3.88c4 0 6.85-1.55 6.85-4.3 0-6.39-18.5-.22-18.5-11.92 0-5.12 5.34-8.63 11.87-8.63 4.75 0 8.58 1.5 11.42 4.38l-3.93 3.52a10.34 10.34 0 0 0-7.76-3.42c-4.39 0-6 2.14-6 3.88 0 6.43 18.49 0 18.49 11.92 0 6-6.07 9.59-12.65 9.59A17 17 0 0 1 95 48zm24.19-13.79h4.75V43a5.35 5.35 0 1 0 10.69 0V30.64h4.75v12.79c0 6.21-4.84 9.91-10.09 9.91s-10.09-3.7-10.09-9.91zm25.12 0h4.47v2.42h.09a4.73 4.73 0 0 1 4.34-3 4.89 4.89 0 0 1 2.6.69l-1.69 4.7a3.51 3.51 0 0 0-1.78-.64 3.25 3.25 0 0 0-3.28 3.33v14.61h-4.75zm13.33 0h5.3l4.88 12.65h.09l4.89-12.65h5.3l-10.23 22.7-10.23-22.7zm43.66 17.31a13.39 13.39 0 0 1-10.3 5.39c-7.72 0-12.19-5.81-12.19-11.65S187.3 30 195 30c4.61 0 11.46 3.8 11.46 12.42v.87h-18.34a6.66 6.66 0 0 0 6.76 5.8 7.87 7.87 0 0 0 6.39-3.43zm-4.38-8.54a6.64 6.64 0 0 0-6.53-5.16 6.28 6.28 0 0 0-6.26 5.16zm8.94-8.77h4.75v13c0 3.7 2.28 5.25 5.2 5.25 3.7 0 5.49-2.29 5.49-5.71V30.64h4.7v21.42c0 6.75-6 9.72-10.09 9.72a10.89 10.89 0 0 1-9.37-4.33l4-2.47a7 7 0 0 0 5.07 2.33c3.15 0 5.89-1.92 5.89-5.8v-1.19h-.09a7.87 7.87 0 0 1-6.67 3c-4.94 0-9-3.7-9-9.91zm25.62-7.17l12.74 12.88 12.74-12.88v29.27h-5.29V35.02l-7.45 7.72-7.44-7.72v17.72h-5.3V23.47zM276.54 30c7.72 0 12.19 5.8 12.19 11.65s-4.47 11.65-12.19 11.65-12.19-5.81-12.19-11.65S268.82 30 276.54 30m0 18.81a7.17 7.17 0 1 0-7.17-7.16 7 7 0 0 0 7.17 7.16m15.52-18.17h4.75v2.79h.09a7.81 7.81 0 0 1 6.76-3.38c4.66 0 8.58 3.89 8.58 9.36v13.34h-4.74V40.46c0-4-2.1-5.66-5.25-5.66a5.17 5.17 0 0 0-5.44 5.57v12.37h-4.75zm26.95 12.88h-3.11v-4.48h3.11V24.06h4.74v14.98h2.42l5.81-8.4h5.75l-7.49 10.41 7.85 11.69h-5.62l-5.84-9.22h-2.88v9.22h-4.74v-9.22zM362 47.95a13.38 13.38 0 0 1-10.27 5.39c-7.71 0-12.2-5.81-12.2-11.65S344 30 351.75 30c4.61 0 11.46 3.8 11.46 12.42v.87h-18.36a6.66 6.66 0 0 0 6.76 5.8 7.87 7.87 0 0 0 6.39-3.43zm-4.38-8.54a6.64 6.64 0 0 0-6.53-5.16 6.27 6.27 0 0 0-6.26 5.16zm8.51-8.77h4.75v13c0 3.7 2.28 5.25 5.21 5.25 3.7 0 5.48-2.29 5.48-5.71V30.64h4.75v21.42c0 6.75-6 9.72-10.09 9.72a10.88 10.88 0 0 1-9.36-4.33l4-2.47a7 7 0 0 0 5.07 2.33c3.15 0 5.89-1.92 5.89-5.8v-1.19h-.09a7.87 7.87 0 0 1-6.67 3c-4.93 0-8.95-3.7-8.95-9.91z"/><path class="c" d="M392.56 33.11h.57a.9.9 0 0 0 .56-.12.4.4 0 0 0 .15-.33.41.41 0 0 0-.07-.23.46.46 0 0 0-.2-.16 1.52 1.52 0 0 0-.47 0h-.54zm-.48 1.65v-2.93h1a2.52 2.52 0 0 1 .75.08.8.8 0 0 1 .51.72.77.77 0 0 1-.23.56.88.88 0 0 1-.61.27.83.83 0 0 1 .25.16 3 3 0 0 1 .43.58l.36.58H394l-.26-.46a2.37 2.37 0 0 0-.5-.68.62.62 0 0 0-.37-.1h-.28v1.25zm1.2-3.78a2.32 2.32 0 0 0-1.12.29 2.14 2.14 0 0 0-.86.84 2.39 2.39 0 0 0-.3 1.14 2.3 2.3 0 0 0 .3 1.13 2.14 2.14 0 0 0 .85.84 2.27 2.27 0 0 0 2.26 0 2.13 2.13 0 0 0 .84-.84 2.3 2.3 0 0 0 0-2.27 2.08 2.08 0 0 0-.85-.84 2.35 2.35 0 0 0-1.12-.29m0-.45a2.77 2.77 0 0 1 1.34.36 2.46 2.46 0 0 1 1 1 2.71 2.71 0 0 1 0 2.72 2.57 2.57 0 0 1-1 1 2.75 2.75 0 0 1-1.35.36 2.81 2.81 0 0 1-1.36-.36 2.57 2.57 0 0 1-1-1 2.77 2.77 0 0 1-.36-1.35 2.7 2.7 0 0 1 .37-1.37 2.49 2.49 0 0 1 1-1 2.79 2.79 0 0 1 1.34-.36"/><path class="d" d="M0 0h411v85H0z"/></svg>