<svg xmlns="http://www.w3.org/2000/svg" viewBox="0 0 114.9 118.1"><path d="M113.4 0c-.8 0-1.5.7-1.5 1.5v3.1h-8.5V1.5c0-.8-.7-1.5-1.5-1.5s-1.5.7-1.5 1.5v3.1h-8.5V1.5c0-.8-.7-1.5-1.5-1.5s-1.5.7-1.5 1.5v58.4h-5.2v-2.7c0-.8-.7-1.5-1.5-1.5s-1.5.7-1.5 1.5v2.7h-5.2v-2.3c0-.8-.7-1.5-1.5-1.5s-1.5.7-1.5 1.5v2.3h-5.2v-2.7c0-.8-.7-1.5-1.5-1.5s-1.5.7-1.5 1.5v2.7h-5.2v-9.1h3c.8 0 1.5-.7 1.5-1.5s-.7-1.5-1.5-1.5h-3V44c0-.8-.7-1.5-1.5-1.5s-1.5.7-1.5 1.5v3.8h-3c-.8 0-1.5.7-1.5 1.5s.7 1.5 1.5 1.5h3v9.1h-5.2v-2.7c0-.8-.7-1.5-1.5-1.5s-1.5.7-1.5 1.5v2.7h-5.2v-2.3c0-.8-.7-1.5-1.5-1.5s-1.5.7-1.5 1.5v2.3h-5.2v-2.7c0-.8-.7-1.5-1.5-1.5s-1.5.7-1.5 1.5v2.7h-5.2V1.5c0-.8-.7-1.5-1.5-1.5s-1.5.7-1.5 1.5v3.1h-8.5V1.5C14.5.7 13.8 0 13 0s-1.5.7-1.5 1.5v3.1H3V1.5C3 .7 2.3 0 1.5 0S0 .7 0 1.5v115.1c0 .8.7 1.5 1.5 1.5h111.9c.8 0 1.5-.7 1.5-1.5V1.5c0-.8-.7-1.5-1.5-1.5zM3 7.6h19.9v107.6H3V7.6zm22.9 55.3h63v52.3h-6.7v-14.5c0-3.3-2.7-6-6-6s-6 2.7-6 6v14.5h-6.7v-14.5c0-3.3-2.7-6-6-6s-6 2.7-6 6v14.5h-6.7v-14.5c0-3.3-2.7-6-6-6s-6 2.7-6 6v14.5h-6.7V62.9zm9.7 52.2v-14.5c0-1.7 1.4-3 3-3s3 1.4 3 3v14.5h-6zm18.8 0v-14.5c0-1.7 1.4-3 3-3s3 1.4 3 3v14.5h-6zm18.7 0v-14.5c0-1.7 1.4-3 3-3s3 1.4 3 3v14.5h-6zm38.8 0h-20V7.6h19.9v107.5z"/><path d="M16.1 56.5c.8 0 1.5-.7 1.5-1.5V44c0-2.5-2.1-4.6-4.6-4.6s-4.6 2-4.6 4.6v11c0 .8.7 1.5 1.5 1.5h6.2zM11.4 44c0-.9.7-1.6 1.6-1.6s1.6.7 1.6 1.6v9.5h-3.2V44zm4.7 40.3c.8 0 1.5-.7 1.5-1.5v-11c0-2.5-2.1-4.6-4.6-4.6s-4.6 2.1-4.6 4.6v11c0 .8.7 1.5 1.5 1.5h6.2zm-4.7-12.5c0-.9.7-1.6 1.6-1.6s1.6.7 1.6 1.6v9.5h-3.2v-9.5zm24.1 12.5h6.2c.8 0 1.5-.7 1.5-1.5v-11c0-2.5-2.1-4.6-4.6-4.6s-4.6 2-4.6 4.6v11c0 .8.7 1.5 1.5 1.5zM37 71.8c0-.9.7-1.6 1.6-1.6s1.6.7 1.6 1.6v9.5H37v-9.5zm17.3 12.5h6.2c.8 0 1.5-.7 1.5-1.5v-11c0-2.5-2.1-4.6-4.6-4.6s-4.6 2.1-4.6 4.6v11c0 .8.7 1.5 1.5 1.5zm1.5-12.5c0-.9.7-1.6 1.6-1.6s1.6.7 1.6 1.6v9.5h-3.2v-9.5zm17.3 12.5h6.2c.8 0 1.5-.7 1.5-1.5v-11c0-2.5-2.1-4.6-4.6-4.6s-4.6 2.1-4.6 4.6v11c0 .8.6 1.5 1.5 1.5zm1.5-12.5c0-.9.7-1.6 1.6-1.6s1.6.7 1.6 1.6v9.5h-3.2v-9.5zM105 56.5c.8 0 1.5-.7 1.5-1.5V44c0-2.5-2.1-4.6-4.6-4.6s-4.6 2.1-4.6 4.6v11c0 .8.7 1.5 1.5 1.5h6.2zM100.3 44c0-.9.7-1.6 1.6-1.6s1.6.7 1.6 1.6v9.5h-3.2V44zM9.9 28.9h6.2c.8 0 1.5-.7 1.5-1.5v-11c0-2.5-2.1-4.6-4.6-4.6s-4.6 2.1-4.6 4.6v11c0 .8.6 1.5 1.5 1.5zm1.5-12.5c0-.9.7-1.6 1.6-1.6s1.6.7 1.6 1.6v9.5h-3.2v-9.5zm85.9 0v11c0 .8.7 1.5 1.5 1.5h6.2c.8 0 1.5-.7 1.5-1.5v-11c0-2.5-2.1-4.6-4.6-4.6s-4.6 2-4.6 4.6zm6.2 0v9.5h-3.2v-9.5c0-.9.7-1.6 1.6-1.6s1.6.7 1.6 1.6zm1.5 67.9c.8 0 1.5-.7 1.5-1.5v-11c0-2.5-2.1-4.6-4.6-4.6s-4.6 2.1-4.6 4.6v11c0 .8.7 1.5 1.5 1.5h6.2zm-4.7-12.5c0-.9.7-1.6 1.6-1.6s1.6.7 1.6 1.6v9.5h-3.2v-9.5zM19.1 59.9H6.9c-.8 0-1.5.7-1.5 1.5s.7 1.5 1.5 1.5h12.2c.8 0 1.5-.7 1.5-1.5s-.7-1.5-1.5-1.5zm0 27.6H6.9c-.8 0-1.5.7-1.5 1.5s.7 1.5 1.5 1.5h12.2c.8 0 1.5-.7 1.5-1.5s-.7-1.5-1.5-1.5zm0-55.3H6.9c-.8 0-1.5.7-1.5 1.5s.7 1.5 1.5 1.5h12.2c.8 0 1.5-.7 1.5-1.5s-.7-1.5-1.5-1.5zM108 59.9H95.8c-.8 0-1.5.7-1.5 1.5s.7 1.5 1.5 1.5H108c.8 0 1.5-.7 1.5-1.5s-.7-1.5-1.5-1.5zm0 27.6H95.8c-.8 0-1.5.7-1.5 1.5s.7 1.5 1.5 1.5H108c.8 0 1.5-.7 1.5-1.5s-.7-1.5-1.5-1.5zM94.3 33.7c0 .8.7 1.5 1.5 1.5H108c.8 0 1.5-.7 1.5-1.5s-.7-1.5-1.5-1.5H95.8c-.9 0-1.5.7-1.5 1.5z"/></svg>