<svg xmlns="http://www.w3.org/2000/svg" viewBox="0 0 554.5 194.7"><path d="M77.7-196.1c-.8 0-1.5-.7-1.5-1.5v-127.2c0-.8.7-1.5 1.5-1.5s1.5.7 1.5 1.5v127.2c0 .8-.7 1.5-1.5 1.5zM73-323.3c-.6 0-1.1-.3-1.3-.8L58-351.5H46.6l-13.7 27.4c-.4.7-1.3 1-2 .7-.7-.4-1-1.3-.7-2l14.1-28.2c.3-.5.8-.8 1.3-.8h13.2c.6 0 1.1.3 1.3.8l14.1 28.2c.4.7.1 1.6-.7 2-.1 0-.3.1-.5.1zM26.8-196.1c-.8 0-1.5-.7-1.5-1.5v-127.2c0-.8.7-1.5 1.5-1.5s1.5.7 1.5 1.5v127.2c0 .8-.6 1.5-1.5 1.5z"/><path d="M58.8-301.4H45.7c-.8 0-1.5-.7-1.5-1.5v-9.3H41c-.8 0-1.5-.7-1.5-1.5v-9.6H26.8c-.8 0-1.5-.7-1.5-1.5s.7-1.5 1.5-1.5H41c.8 0 1.5.7 1.5 1.5v9.6h3.2c.8 0 1.5.7 1.5 1.5v9.3h10.2v-9.3c0-.8.7-1.5 1.5-1.5H62v-9.6c0-.8.7-1.5 1.5-1.5h14.1c.8 0 1.5.7 1.5 1.5s-.7 1.5-1.5 1.5H65v9.6c0 .8-.7 1.5-1.5 1.5h-3.2v9.3c0 .8-.6 1.5-1.5 1.5zm2.1-42.2H43.6c-.8 0-1.5-.7-1.5-1.5s.7-1.5 1.5-1.5h17.2c.8 0 1.5.7 1.5 1.5s-.6 1.5-1.4 1.5zm-8.6 59.9c-.8 0-1.5-.7-1.5-1.5v-6.3c0-.8.7-1.5 1.5-1.5s1.5.7 1.5 1.5v6.3c0 .8-.7 1.5-1.5 1.5zm14.1.2c-.8 0-1.5-.7-1.5-1.5v-6.7c0-.8.7-1.5 1.5-1.5s1.5.7 1.5 1.5v6.7c0 .8-.6 1.5-1.5 1.5zm-28.3 0c-.8 0-1.5-.7-1.5-1.5v-6.7c0-.8.7-1.5 1.5-1.5s1.5.7 1.5 1.5v6.7c0 .8-.7 1.5-1.5 1.5zm14.2 16.9c-.8 0-1.5-.7-1.5-1.5v-6.3c0-.8.7-1.5 1.5-1.5s1.5.7 1.5 1.5v6.3c0 .9-.7 1.5-1.5 1.5zm14.1.2c-.8 0-1.5-.7-1.5-1.5v-6.7c0-.8.7-1.5 1.5-1.5s1.5.7 1.5 1.5v6.7c0 .8-.6 1.5-1.5 1.5zm-28.3 0c-.8 0-1.5-.7-1.5-1.5v-6.7c0-.8.7-1.5 1.5-1.5s1.5.7 1.5 1.5v6.7c0 .8-.7 1.5-1.5 1.5zm14.2 17c-.8 0-1.5-.7-1.5-1.5v-6.3c0-.8.7-1.5 1.5-1.5s1.5.7 1.5 1.5v6.3c0 .8-.7 1.5-1.5 1.5zm14.1.2c-.8 0-1.5-.7-1.5-1.5v-6.7c0-.8.7-1.5 1.5-1.5s1.5.7 1.5 1.5v6.7c0 .8-.6 1.5-1.5 1.5zm-28.3 0c-.8 0-1.5-.7-1.5-1.5v-6.7c0-.8.7-1.5 1.5-1.5s1.5.7 1.5 1.5v6.7c0 .8-.7 1.5-1.5 1.5zm14.2 17c-.8 0-1.5-.7-1.5-1.5v-6.3c0-.8.7-1.5 1.5-1.5s1.5.7 1.5 1.5v6.3c0 .8-.7 1.5-1.5 1.5zm14.1.2c-.8 0-1.5-.7-1.5-1.5v-6.7c0-.8.7-1.5 1.5-1.5s1.5.7 1.5 1.5v6.7c0 .8-.6 1.5-1.5 1.5zm-28.3 0c-.8 0-1.5-.7-1.5-1.5v-6.7c0-.8.7-1.5 1.5-1.5s1.5.7 1.5 1.5v6.7c0 .8-.7 1.5-1.5 1.5zm14.2 16.9c-.8 0-1.5-.7-1.5-1.5v-6.3c0-.8.7-1.5 1.5-1.5s1.5.7 1.5 1.5v6.3c0 .9-.7 1.5-1.5 1.5zm14.1.2c-.8 0-1.5-.7-1.5-1.5v-6.7c0-.8.7-1.5 1.5-1.5s1.5.7 1.5 1.5v6.7c0 .8-.6 1.5-1.5 1.5zm-28.3 0c-.8 0-1.5-.7-1.5-1.5v-6.7c0-.8.7-1.5 1.5-1.5s1.5.7 1.5 1.5v6.7c0 .8-.7 1.5-1.5 1.5zM246.8 78.2c-.8 0-1.5-.7-1.5-1.5v-47c0-.8.7-1.5 1.5-1.5s1.5.7 1.5 1.5v47c0 .9-.6 1.5-1.5 1.5zm-4.7-47c-.6 0-1.1-.3-1.3-.8L227.1 3h-11.3l-13.7 27.4c-.4.7-1.3 1-2 .7-.7-.4-1-1.3-.7-2L213.5.9c.3-.5.8-.8 1.3-.8H228c.6 0 1.1.3 1.3.8l14.1 28.2c.4.7.1 1.6-.7 2-.1.1-.3.1-.6.1zm-46.1 72c-.8 0-1.5-.7-1.5-1.5v-72c0-.8.7-1.5 1.5-1.5s1.5.7 1.5 1.5v72c0 .8-.7 1.5-1.5 1.5z"/><path d="M228 53.2h-13.2c-.8 0-1.5-.7-1.5-1.5v-9.3h-3.2c-.8 0-1.5-.7-1.5-1.5v-9.6H196c-.8 0-1.5-.7-1.5-1.5s.7-1.5 1.5-1.5h14.1c.8 0 1.5.7 1.5 1.5v9.6h3.2c.8 0 1.5.7 1.5 1.5v9.3h10.2v-9.3c0-.8.7-1.5 1.5-1.5h3.2v-9.6c0-.8.7-1.5 1.5-1.5h14.1c.8 0 1.5.7 1.5 1.5s-.7 1.5-1.5 1.5h-12.6v9.6c0 .8-.7 1.5-1.5 1.5h-3.2v9.3c0 .8-.7 1.5-1.5 1.5zm2-42.3h-17.2c-.8 0-1.5-.7-1.5-1.5s.7-1.5 1.5-1.5H230c.8 0 1.5.7 1.5 1.5s-.6 1.5-1.5 1.5zm-8.6 59.9c-.8 0-1.5-.7-1.5-1.5V63c0-.8.7-1.5 1.5-1.5s1.5.7 1.5 1.5v6.3c0 .9-.6 1.5-1.5 1.5zm14.2.2c-.8 0-1.5-.7-1.5-1.5v-6.7c0-.8.7-1.5 1.5-1.5s1.5.7 1.5 1.5v6.7c0 .8-.7 1.5-1.5 1.5zm-28.4 0c-.8 0-1.5-.7-1.5-1.5v-6.7c0-.8.7-1.5 1.5-1.5s1.5.7 1.5 1.5v6.7c0 .8-.6 1.5-1.5 1.5zm14.2 17c-.8 0-1.5-.7-1.5-1.5v-6.3c0-.8.7-1.5 1.5-1.5s1.5.7 1.5 1.5v6.3c0 .8-.6 1.5-1.5 1.5zm14.2-5.1c-.8 0-1.5-.7-1.5-1.5V80c0-.8.7-1.5 1.5-1.5s1.5.7 1.5 1.5v1.4c0 .8-.7 1.5-1.5 1.5zm-28.4 5.3c-.8 0-1.5-.7-1.5-1.5V80c0-.8.7-1.5 1.5-1.5s1.5.7 1.5 1.5v6.7c0 .8-.6 1.5-1.5 1.5zm482.7-297s.1-.1 0 0c.1-.2.1-.3.1-.3v-.7c0-.1 0-.1-.1-.2 0 0 0-.1-.1-.1 0-.1-.1-.1-.1-.2 0 0 0-.1-.1-.1l-.1-.1c-.2-.2-15.4-12.1-37.6-19.6h-.1c-.1 0-.1-.1-.2-.1h-.3c-10.1-3.4-21.6-5.8-33.8-5.8-27.4 0-51.1 12.1-63.7 19.9-2.6-6.4-3.8-14.1-2.2-23.8 3.5-20.7 20-45.3 48.9-73.1.4-.4.6-1.1.4-1.6-.2-.6-.8-.9-1.4-.9h-53.7c-.5 0-1 .3-1.3.8-.3.5-.3 1 0 1.5.3.4 23.9 44.4-92.6 114.7-.6.3-.9 1-.7 1.7s.8 1.1 1.4 1.1h217.1c.2 0 .4 0 .6-.1 9.5-4.1 18.7-11.8 19.1-12.1l.1-.1.1-.1c.3-.6.3-.7.3-.7zm-6-2.2h-13.7c-1.1-2.1-4.2-7.5-10.1-13 10.9 4.7 19.3 9.9 23.8 13zm-42.1 11.9c4.6-3.8 7.1-7.3 8-8.9h15.7c-2.9 2.5-7.9 6.3-14.7 8.9h-9zm-15.8 0c2.1-3.9 2.9-7.1 3.2-8.9h17c-1.6 2.1-4.6 5.6-9.4 8.9H626zm-13.7 0c-2.2-3.8-3.2-7-3.6-8.9H626c-.4 1.8-1.4 5.1-3.6 8.9h-10.1zm-14.2 0c-4.8-3.3-7.8-6.7-9.4-8.9h17c.3 1.7 1.2 4.9 3.2 8.9h-10.8zm-14 0c-6.8-2.6-11.8-6.4-14.7-8.9h15.7c.9 1.5 3.4 5.1 8 8.9h-9zm-18.3 0c-.7-.8-1.5-1.6-2.3-2.5-1.7-1.9-3.5-4-5.1-6.4h6.6c1.3 1.4 5.5 5.4 11.9 8.9h-11.1zm73.7-28.5c4.2 6.1 6.6 13.3 7.5 16.5h-17.7c-.2-2.9-.9-9.8-2.4-16.5h12.6zm-15.6 0c1.5 6.5 2.2 13.5 2.4 16.5h-17.7c.2-3.1.9-10.1 2.4-16.5h12.9zM605.6-211h-17.7c.9-3.3 3.3-10.4 7.5-16.5H608c-1.5 6.7-2.2 13.6-2.4 16.5zm-21.4-16.6h7.6c-4.1 6.7-6.3 13.8-7 16.5h-16.6c2-3.5 7.1-10.8 16-16.5zm65.9 16.6c-.7-2.8-2.9-9.9-7-16.5h7.6c8.9 5.7 14 13 16.1 16.5h-16.7zm-9.8-19.6h-45.9c7.2-1.7 15-2.8 23-2.8s15.7 1.1 22.9 2.8zM555-213.7c4.9-3.1 11.7-6.9 19.8-10.4-5.9 5.5-9.1 11-10.2 13.1h-8.2c-.2-.4-.4-.8-.7-1.1-.2-.6-.4-1.1-.7-1.6zm-9.7-68.7c6.5-15.7 4.3-26.1 2.8-30.5h47.7c-27.7 27.2-43.6 51.4-47.1 72.1-1.9 11.1-.1 19.9 3.1 27v.1c.8 1.8 1.6 3.4 2.6 4.9 0 .1.1.1.1.2 1.7 2.8 3.6 5.2 5.5 7.4.1.1.2.3.3.4.5.6 1 1.1 1.4 1.6H458c47-28.9 76.4-56.9 87.3-83.2zm124.3 83.3H658c6.4-3.5 10.6-7.5 11.9-8.9h14.3c-3.4 2.5-9 6.4-14.6 8.9z"/><path d="M513.8-225.1h23.9c.8 0 1.5-.7 1.5-1.5s-.7-1.5-1.5-1.5h-23.9c-.8 0-1.5.7-1.5 1.5s.7 1.5 1.5 1.5zm9.8-8.3H538c.8 0 1.5-.7 1.5-1.5s-.7-1.5-1.5-1.5h-14.3c-.8 0-1.5.7-1.5 1.5s.6 1.5 1.4 1.5zM504-216.7h35.2c.8 0 1.5-.7 1.5-1.5s-.7-1.5-1.5-1.5H504c-.8 0-1.5.7-1.5 1.5s.7 1.5 1.5 1.5zm38.4 5.7h-51c-.8 0-1.5.7-1.5 1.5s.7 1.5 1.5 1.5h51c.8 0 1.5-.7 1.5-1.5s-.7-1.5-1.5-1.5zm16.6-93.1h20.7c.8 0 1.5-.7 1.5-1.5s-.7-1.5-1.5-1.5H559c-.8 0-1.5.7-1.5 1.5s.6 1.5 1.5 1.5zm-.3 8.6h13c.8 0 1.5-.7 1.5-1.5s-.7-1.5-1.5-1.5h-13c-.8 0-1.5.7-1.5 1.5s.7 1.5 1.5 1.5zm-1.9 8.6h7.6c.8 0 1.5-.7 1.5-1.5s-.7-1.5-1.5-1.5h-7.6c-.8 0-1.5.7-1.5 1.5s.7 1.5 1.5 1.5zm-19.9 469c0-.1 0-.1 0 0 .1-.2.1-.3.1-.3v-.7c0-.1 0-.1-.1-.2 0 0 0-.1-.1-.1 0-.1-.1-.1-.1-.2 0 0 0-.1-.1-.1l-.1-.1c-.2-.2-15.4-12.1-37.6-19.6h-.1c-.1 0-.1-.1-.2-.1h-.3c-10.1-3.4-21.6-5.8-33.8-5.8-27.4 0-51.1 12.1-63.7 19.9-2.6-6.4-3.8-14.1-2.2-23.8 3.5-20.7 20-45.3 48.9-73.1.4-.4.6-1.1.4-1.6-.2-.6-.8-.9-1.4-.9h-53.7c-.5 0-1 .3-1.3.8-.3.5-.3 1 0 1.5.3.4 23.9 44.4-92.6 114.7-.6.3-.9 1-.7 1.7s.8 1.1 1.4 1.1h217.1c.2 0 .4 0 .6-.1 9.5-4.1 18.7-11.8 19.1-12.1l.1-.1.1-.1c.2-.6.2-.7.3-.7zm-6-2.2h-13.7c-1.1-2.1-4.2-7.5-10.1-13 10.9 4.6 19.3 9.9 23.8 13zm-42.2 11.8c4.6-3.8 7.1-7.3 8-8.9h15.7c-2.9 2.5-7.9 6.3-14.7 8.9h-9zm-15.8 0c2.1-3.9 2.9-7.1 3.2-8.9h17c-1.6 2.1-4.6 5.6-9.4 8.9h-10.8zm-13.6 0c-2.2-3.8-3.2-7-3.6-8.9H473c-.4 1.8-1.4 5.1-3.6 8.9h-10.1zm-14.3 0c-4.8-3.3-7.8-6.7-9.4-8.9h17c.3 1.7 1.2 4.9 3.2 8.9H445zm-14 0c-6.8-2.6-11.8-6.4-14.7-8.9H432c.9 1.5 3.4 5.1 8 8.9h-9zm-18.3 0c-.7-.8-1.5-1.6-2.3-2.5-1.7-1.9-3.5-4-5.1-6.4h6.6c1.3 1.4 5.5 5.4 11.9 8.9h-11.1zm73.7-28.4c4.2 6.1 6.6 13.3 7.5 16.5h-17.7c-.2-2.9-.9-9.8-2.4-16.5h12.6zm-15.6 0c1.5 6.5 2.2 13.5 2.4 16.5h-17.7c.2-3.1.9-10.1 2.4-16.5h12.9zm-18.3 16.6h-17.7c.9-3.3 3.3-10.4 7.5-16.5h12.6c-1.5 6.6-2.1 13.6-2.4 16.5zm-21.3-16.6h7.6c-4.1 6.7-6.3 13.8-7 16.5h-16.6c2-3.5 7-10.8 16-16.5zm65.9 16.6c-.7-2.8-2.9-9.9-7-16.5h7.6c8.9 5.7 14 13 16.1 16.5h-16.7zm-9.8-19.6h-45.9c7.2-1.7 15-2.8 23-2.8s15.7 1.1 22.9 2.8zM402 177.2c4.9-3.1 11.7-6.9 19.8-10.4-5.9 5.5-9.1 11-10.2 13.1h-8.2c-.2-.4-.4-.8-.7-1.1-.2-.6-.5-1.1-.7-1.6zm-9.8-68.7c6.5-15.7 4.3-26.1 2.8-30.5h47.7c-27.7 27.2-43.6 51.4-47.1 72.1-1.9 11.1-.1 19.9 3.1 27v.1c.8 1.8 1.6 3.4 2.6 4.9 0 .1.1.1.1.2 1.7 2.8 3.6 5.2 5.5 7.4.1.1.2.3.3.4.5.6 1 1.1 1.4 1.6H305c47-28.9 76.3-56.9 87.2-83.2zm124.3 83.2h-11.6c6.4-3.5 10.6-7.5 11.9-8.9h14.3c-3.4 2.6-9 6.5-14.6 8.9z"/><path d="M360.8 165.8h23.9c.8 0 1.5-.7 1.5-1.5s-.7-1.5-1.5-1.5h-23.9c-.8 0-1.5.7-1.5 1.5s.7 1.5 1.5 1.5zm9.8-8.3h14.3c.8 0 1.5-.7 1.5-1.5s-.7-1.5-1.5-1.5h-14.3c-.8 0-1.5.7-1.5 1.5s.6 1.5 1.5 1.5zm-19.7 16.7h35.2c.8 0 1.5-.7 1.5-1.5s-.7-1.5-1.5-1.5h-35.2c-.8 0-1.5.7-1.5 1.5s.7 1.5 1.5 1.5zm38.4 5.7h-51c-.8 0-1.5.7-1.5 1.5s.7 1.5 1.5 1.5h51c.8 0 1.5-.7 1.5-1.5s-.6-1.5-1.5-1.5zm16.6-93.1h20.7c.8 0 1.5-.7 1.5-1.5s-.7-1.5-1.5-1.5h-20.7c-.8 0-1.5.7-1.5 1.5s.7 1.5 1.5 1.5zm-.2 8.6h13c.8 0 1.5-.7 1.5-1.5s-.7-1.5-1.5-1.5h-13c-.8 0-1.5.7-1.5 1.5s.6 1.5 1.5 1.5zm-2 8.6h7.6c.8 0 1.5-.7 1.5-1.5s-.7-1.5-1.5-1.5h-7.6c-.8 0-1.5.7-1.5 1.5s.7 1.5 1.5 1.5zM294.3-314.2c-.8 0-1.5.7-1.5 1.5v3.1h-8.5v-3.1c0-.8-.7-1.5-1.5-1.5s-1.5.7-1.5 1.5v3.1h-8.5v-3.1c0-.8-.7-1.5-1.5-1.5s-1.5.7-1.5 1.5v58.4h-5.2v-2.7c0-.8-.7-1.5-1.5-1.5s-1.5.7-1.5 1.5v2.7h-5.2v-2.3c0-.8-.7-1.5-1.5-1.5s-1.5.7-1.5 1.5v2.3h-5.2v-2.7c0-.8-.7-1.5-1.5-1.5s-1.5.7-1.5 1.5v2.7H240v-9.1h3c.8 0 1.5-.7 1.5-1.5s-.7-1.5-1.5-1.5h-3v-3.8c0-.8-.7-1.5-1.5-1.5s-1.5.7-1.5 1.5v3.8h-3c-.8 0-1.5.7-1.5 1.5s.7 1.5 1.5 1.5h3v9.1h-5.2v-2.7c0-.8-.7-1.5-1.5-1.5s-1.5.7-1.5 1.5v2.7h-5.2v-2.3c0-.8-.7-1.5-1.5-1.5s-1.5.7-1.5 1.5v2.3h-5.2v-2.7c0-.8-.7-1.5-1.5-1.5s-1.5.7-1.5 1.5v2.7h-5.2v-58.4c0-.8-.7-1.5-1.5-1.5s-1.5.7-1.5 1.5v3.1h-8.5v-3.1c0-.8-.7-1.5-1.5-1.5s-1.5.7-1.5 1.5v3.1H184v-3.1c0-.8-.7-1.5-1.5-1.5s-1.5.7-1.5 1.5v115.1c0 .8.7 1.5 1.5 1.5h111.9c.8 0 1.5-.7 1.5-1.5v-115.1c-.1-.9-.7-1.5-1.6-1.5zM184-306.6h19.9V-199H184v-107.6zm22.9 55.2h63v52.3h-6.7v-14.5c0-3.3-2.7-6-6-6s-6 2.7-6 6v14.5h-6.7v-14.5c0-3.3-2.7-6-6-6s-6 2.7-6 6v14.5h-6.7v-14.5c0-3.3-2.7-6-6-6s-6 2.7-6 6v14.5h-6.7v-52.3zm9.7 52.3v-14.5c0-1.7 1.4-3 3-3s3 1.4 3 3v14.5h-6zm18.8 0v-14.5c0-1.7 1.4-3 3-3s3 1.4 3 3v14.5h-6zm18.7 0v-14.5c0-1.7 1.4-3 3-3 1.7 0 3 1.4 3 3v14.5h-6zm38.7 0h-19.9v-107.6h19.9v107.6z"/><path d="M197.1-257.7c.8 0 1.5-.7 1.5-1.5v-11c0-2.5-2.1-4.6-4.6-4.6s-4.6 2.1-4.6 4.6v11c0 .8.7 1.5 1.5 1.5h6.2zm-4.8-12.5c0-.9.7-1.6 1.6-1.6s1.6.7 1.6 1.6v9.5h-3.2v-9.5zm4.8 40.2c.8 0 1.5-.7 1.5-1.5v-11c0-2.5-2.1-4.6-4.6-4.6s-4.6 2.1-4.6 4.6v11c0 .8.7 1.5 1.5 1.5h6.2zm-4.8-12.5c0-.9.7-1.6 1.6-1.6s1.6.7 1.6 1.6v9.5h-3.2v-9.5zm24.2 12.5h6.2c.8 0 1.5-.7 1.5-1.5v-11c0-2.5-2.1-4.6-4.6-4.6s-4.6 2.1-4.6 4.6v11c0 .8.7 1.5 1.5 1.5zm1.5-12.5c0-.9.7-1.6 1.6-1.6s1.6.7 1.6 1.6v9.5H218v-9.5zm17.3 12.5h6.2c.8 0 1.5-.7 1.5-1.5v-11c0-2.5-2.1-4.6-4.6-4.6s-4.6 2.1-4.6 4.6v11c0 .8.7 1.5 1.5 1.5zm1.5-12.5c0-.9.7-1.6 1.6-1.6s1.6.7 1.6 1.6v9.5h-3.2v-9.5zm17.3 12.5h6.2c.8 0 1.5-.7 1.5-1.5v-11c0-2.5-2.1-4.6-4.6-4.6-2.5 0-4.6 2.1-4.6 4.6v11c0 .8.6 1.5 1.5 1.5zm1.5-12.5c0-.9.7-1.6 1.6-1.6s1.6.7 1.6 1.6v9.5h-3.2v-9.5zm30.4-15.2c.8 0 1.5-.7 1.5-1.5v-11c0-2.5-2.1-4.6-4.6-4.6s-4.6 2.1-4.6 4.6v11c0 .8.7 1.5 1.5 1.5h6.2zm-4.8-12.5c0-.9.7-1.6 1.6-1.6s1.6.7 1.6 1.6v9.5h-3.2v-9.5zm-90.4-15.2h6.2c.8 0 1.5-.7 1.5-1.5v-11c0-2.5-2.1-4.6-4.6-4.6s-4.6 2.1-4.6 4.6v11c0 .9.7 1.5 1.5 1.5zm1.5-12.5c0-.9.7-1.6 1.6-1.6s1.6.7 1.6 1.6v9.5h-3.2v-9.5zm85.9 0v11c0 .8.7 1.5 1.5 1.5h6.2c.8 0 1.5-.7 1.5-1.5v-11c0-2.5-2.1-4.6-4.6-4.6s-4.6 2.1-4.6 4.6zm6.3 0v9.5h-3.2v-9.5c0-.9.7-1.6 1.6-1.6s1.6.7 1.6 1.6zM286-230c.8 0 1.5-.7 1.5-1.5v-11c0-2.5-2.1-4.6-4.6-4.6s-4.6 2.1-4.6 4.6v11c0 .8.7 1.5 1.5 1.5h6.2zm-4.8-12.5c0-.9.7-1.6 1.6-1.6s1.6.7 1.6 1.6v9.5h-3.2v-9.5zm-81.1-11.9h-12.2c-.8 0-1.5.7-1.5 1.5s.7 1.5 1.5 1.5h12.2c.8 0 1.5-.7 1.5-1.5s-.7-1.5-1.5-1.5zm0 27.6h-12.2c-.8 0-1.5.7-1.5 1.5s.7 1.5 1.5 1.5h12.2c.8 0 1.5-.7 1.5-1.5s-.7-1.5-1.5-1.5zm0-55.2h-12.2c-.8 0-1.5.7-1.5 1.5s.7 1.5 1.5 1.5h12.2c.8 0 1.5-.7 1.5-1.5s-.7-1.5-1.5-1.5zm88.9 27.6h-12.2c-.8 0-1.5.7-1.5 1.5s.7 1.5 1.5 1.5H289c.8 0 1.5-.7 1.5-1.5s-.7-1.5-1.5-1.5zm0 27.6h-12.2c-.8 0-1.5.7-1.5 1.5s.7 1.5 1.5 1.5H289c.8 0 1.5-.7 1.5-1.5s-.7-1.5-1.5-1.5zm-13.7-53.7c0 .8.7 1.5 1.5 1.5H289c.8 0 1.5-.7 1.5-1.5s-.7-1.5-1.5-1.5h-12.2c-.9 0-1.5.7-1.5 1.5zM17 183.3v9.8c0 .8.7 1.5 1.5 1.5h111.9c.8 0 1.5-.7 1.5-1.5v-115c0-.8-.7-1.5-1.5-1.5s-1.5.7-1.5 1.5v3.1h-8.5v-3.1c0-.8-.7-1.5-1.5-1.5s-1.5.7-1.5 1.5v3.1h-8.5v-3.1c0-.8-.7-1.5-1.5-1.5s-1.5.7-1.5 1.5v58.4h-5.2v-2.7c0-.8-.7-1.5-1.5-1.5s-1.5.7-1.5 1.5v2.7h-5.2v-2.3c0-.8-.7-1.5-1.5-1.5s-1.5.7-1.5 1.5v2.3h-5.2v-2.7c0-.8-.7-1.5-1.5-1.5s-1.5.7-1.5 1.5v2.7H76v-9.1h3c.8 0 1.5-.7 1.5-1.5s-.7-1.5-1.5-1.5h-3v-3.8c0-.8-.7-1.5-1.5-1.5s-1.5.7-1.5 1.5v3.8h-3c-.8 0-1.5.7-1.5 1.5s.7 1.5 1.5 1.5h3v9.1h-5.2v-2.7c0-.8-.7-1.5-1.5-1.5s-1.5.7-1.5 1.5v2.7h-5.2v-2.3c0-.8-.7-1.5-1.5-1.5s-1.5.7-1.5 1.5v2.3h-5.2v-2.7c0-.8-.7-1.5-1.5-1.5s-1.5.7-1.5 1.5v2.7H43V78.1c0-.8-.7-1.5-1.5-1.5s-1.5.7-1.5 1.5v3.1h-8.5v-3.1c0-.8-.7-1.5-1.5-1.5s-1.5.7-1.5 1.5v3.1H20v-3.1c0-.8-.7-1.5-1.5-1.5s-1.5.7-1.5 1.5V163l3 1.9V84.2h20v107.6H20v-9.2l-3 .7zm26-43.9h63v52.3h-6.7v-14.5c0-3.3-2.7-6-6-6s-6 2.7-6 6v14.5h-6.7v-14.5c0-3.3-2.7-6-6-6s-6 2.7-6 6v14.5h-6.7v-14.5c0-3.3-2.7-6-6-6s-6 2.7-6 6v14.5H43v-52.3zm9.7 52.3v-14.5c0-1.7 1.4-3 3-3s3 1.4 3 3v14.5h-6zm18.7 0v-14.5c0-1.7 1.4-3 3-3s3 1.4 3 3v14.5h-6zm18.8 0v-14.5c0-1.7 1.4-3 3-3s3 1.4 3 3v14.5h-6zm38.7 0H109V84.2h19.9v107.5z"/><path d="M33.1 133.1c.8 0 1.5-.7 1.5-1.5v-11c0-2.5-2.1-4.6-4.6-4.6s-4.6 2.1-4.6 4.6v11c0 .8.7 1.5 1.5 1.5h6.2zm-4.7-12.5c0-.9.7-1.6 1.6-1.6s1.6.7 1.6 1.6v9.5h-3.2v-9.5zm4.7 40.2c.8 0 1.5-.7 1.5-1.5v-11c0-2.5-2.1-4.6-4.6-4.6s-4.6 2.1-4.6 4.6v11c0 .8.7 1.5 1.5 1.5h6.2zm-4.7-12.5c0-.9.7-1.6 1.6-1.6s1.6.7 1.6 1.6v9.5h-3.2v-9.5zm24.2 12.5h6.2c.8 0 1.5-.7 1.5-1.5v-11c0-2.5-2.1-4.6-4.6-4.6s-4.6 2.1-4.6 4.6v11c0 .9.6 1.5 1.5 1.5zm1.5-12.5c0-.9.7-1.6 1.6-1.6s1.6.7 1.6 1.6v9.5h-3.2v-9.5zm17.2 12.5h6.2c.8 0 1.5-.7 1.5-1.5v-11c0-2.5-2.1-4.6-4.6-4.6s-4.6 2.1-4.6 4.6v11c0 .9.7 1.5 1.5 1.5zm1.5-12.5c0-.9.7-1.6 1.6-1.6s1.6.7 1.6 1.6v9.5h-3.2v-9.5zm17.3 12.5h6.2c.8 0 1.5-.7 1.5-1.5v-11c0-2.5-2.1-4.6-4.6-4.6s-4.6 2.1-4.6 4.6v11c0 .9.7 1.5 1.5 1.5zm1.5-12.5c0-.9.7-1.6 1.6-1.6s1.6.7 1.6 1.6v9.5h-3.2v-9.5zm30.4-15.2c.8 0 1.5-.7 1.5-1.5v-11c0-2.5-2.1-4.6-4.6-4.6s-4.6 2.1-4.6 4.6v11c0 .8.7 1.5 1.5 1.5h6.2zm-4.7-12.5c0-.9.7-1.6 1.6-1.6s1.6.7 1.6 1.6v9.5h-3.2v-9.5zm-90.4-15.2h6.2c.8 0 1.5-.7 1.5-1.5V93c0-2.5-2.1-4.6-4.6-4.6s-4.6 2.1-4.6 4.6v11c0 .8.7 1.4 1.5 1.4zM28.4 93c0-.9.7-1.6 1.6-1.6s1.6.7 1.6 1.6v9.5h-3.2V93zm85.9 0v11c0 .8.7 1.5 1.5 1.5h6.2c.8 0 1.5-.7 1.5-1.5V93c0-2.5-2.1-4.6-4.6-4.6s-4.6 2-4.6 4.6zm6.2 0v9.5h-3.2V93c0-.9.7-1.6 1.6-1.6s1.6.7 1.6 1.6zm1.5 67.8c.8 0 1.5-.7 1.5-1.5v-11c0-2.5-2.1-4.6-4.6-4.6s-4.6 2.1-4.6 4.6v11c0 .8.7 1.5 1.5 1.5h6.2zm-4.7-12.5c0-.9.7-1.6 1.6-1.6s1.6.7 1.6 1.6v9.5h-3.2v-9.5zm-81.2-11.9H23.9c-.8 0-1.5.7-1.5 1.5s.7 1.5 1.5 1.5h12.2c.8 0 1.5-.7 1.5-1.5s-.7-1.5-1.5-1.5zm0 27.7H23.9c-.8 0-1.5.7-1.5 1.5s.7 1.5 1.5 1.5h12.2c.8 0 1.5-.7 1.5-1.5s-.7-1.5-1.5-1.5zm0-55.3H23.9c-.8 0-1.5.7-1.5 1.5s.7 1.5 1.5 1.5h12.2c.8 0 1.5-.7 1.5-1.5s-.7-1.5-1.5-1.5zm88.9 27.6h-12.2c-.8 0-1.5.7-1.5 1.5s.7 1.5 1.5 1.5H125c.8 0 1.5-.7 1.5-1.5s-.6-1.5-1.5-1.5zm0 27.7h-12.2c-.8 0-1.5.7-1.5 1.5s.7 1.5 1.5 1.5H125c.8 0 1.5-.7 1.5-1.5s-.6-1.5-1.5-1.5zm-13.7-53.8c0 .8.7 1.5 1.5 1.5H125c.8 0 1.5-.7 1.5-1.5s-.7-1.5-1.5-1.5h-12.2c-.8 0-1.5.7-1.5 1.5zm-542.7-306.4c-.4 0-.8-.1-1-.4-.6-.6-.6-1.5 0-2.1.3-.3 25.7-26.5 61.8-52.4 33.4-23.9 83-52.5 129.8-52.5S-144.4-275-111-251c36.1 25.9 61.5 52.1 61.8 52.4.6.6.6 1.5 0 2.1-.6.6-1.5.6-2.1 0-.3-.3-25.5-26.3-61.4-52.1-33-23.7-82-51.9-128-51.9s-95 28.2-128 51.9c-35.9 25.7-61.1 51.8-61.4 52-.5.3-.9.5-1.3.5z"/><path d="M-235.6-300.6h-9.9c-.8 0-1.5-.7-1.5-1.5v-9.9c0-.8.7-1.5 1.5-1.5h9.9c.8 0 1.5.7 1.5 1.5v9.9c0 .9-.6 1.5-1.5 1.5zm-8.4-3h6.9v-6.9h-6.9v6.9z"/><path d="M-235.6-310.5h-9.9c-.8 0-1.5-.7-1.5-1.5v-9.9c0-.8.7-1.5 1.5-1.5h9.9c.8 0 1.5.7 1.5 1.5v9.9c0 .9-.6 1.5-1.5 1.5zm-8.4-3h6.9v-6.9h-6.9v6.9z"/><path d="M-235.6-320.4h-9.9c-.8 0-1.5-.7-1.5-1.5v-9.9c0-.8.7-1.5 1.5-1.5h9.9c.8 0 1.5.7 1.5 1.5v9.9c0 .9-.6 1.5-1.5 1.5zm-8.4-3h6.9v-6.9h-6.9v6.9z"/><path d="M-225.7-320.4h-9.9c-.8 0-1.5-.7-1.5-1.5v-9.9c0-.8.7-1.5 1.5-1.5h9.9c.8 0 1.5.7 1.5 1.5v9.9c0 .9-.6 1.5-1.5 1.5zm-8.4-3h6.9v-6.9h-6.9v6.9zm-11.4 3h-9.9c-.8 0-1.5-.7-1.5-1.5v-9.9c0-.8.7-1.5 1.5-1.5h9.9c.8 0 1.5.7 1.5 1.5v9.9c0 .9-.6 1.5-1.5 1.5zm-8.4-3h6.9v-6.9h-6.9v6.9z"/><path d="M-235.6-330.3h-9.9c-.8 0-1.5-.7-1.5-1.5v-9.9c0-.8.7-1.5 1.5-1.5h9.9c.8 0 1.5.7 1.5 1.5v9.9c0 .9-.6 1.5-1.5 1.5zm-8.4-3h6.9v-6.9h-6.9v6.9zm637.1 435.4c-29.3-17.2-64.2-32-97.6-32-46 0-95 28.2-128 51.9-14.3 10.3-27 20.6-37 29.3l-.2-3.8c9.8-8.4 21.8-18.2 35.4-27.9 33.4-23.9 83-52.5 129.8-52.5 33.5 0 68.5 14.7 98 31.8l-.4 3.2zm21.6 10.1c3.7 2.5 7.2 4.9 10.6 7.4 18 12.9 33.4 26 44.3 35.8l-3.7.7c-10.7-9.6-25.4-21.9-42.4-34.1-3.2-2.3-6.6-4.7-10.1-7l1.3-2.8z"/><path d="M300.8 70.1h-9.9c-.8 0-1.5-.7-1.5-1.5v-9.9c0-.8.7-1.5 1.5-1.5h9.9c.8 0 1.5.7 1.5 1.5v9.9c0 .8-.6 1.5-1.5 1.5zm-8.4-3h6.9v-6.9h-6.9v6.9z"/><path d="M300.8 60.2h-9.9c-.8 0-1.5-.7-1.5-1.5v-9.9c0-.8.7-1.5 1.5-1.5h9.9c.8 0 1.5.7 1.5 1.5v9.9c0 .8-.6 1.5-1.5 1.5zm-8.4-3h6.9v-6.9h-6.9v6.9z"/><path d="M300.8 50.3h-9.9c-.8 0-1.5-.7-1.5-1.5v-9.9c0-.8.7-1.5 1.5-1.5h9.9c.8 0 1.5.7 1.5 1.5v9.9c0 .8-.6 1.5-1.5 1.5zm-8.4-3h6.9v-6.9h-6.9v6.9z"/><path d="M310.7 50.3h-9.9c-.8 0-1.5-.7-1.5-1.5v-9.9c0-.8.7-1.5 1.5-1.5h9.9c.8 0 1.5.7 1.5 1.5v9.9c0 .8-.6 1.5-1.5 1.5zm-8.4-3h6.9v-6.9h-6.9v6.9zm-11.4 3H281c-.8 0-1.5-.7-1.5-1.5v-9.9c0-.8.7-1.5 1.5-1.5h9.9c.8 0 1.5.7 1.5 1.5v9.9c0 .8-.6 1.5-1.5 1.5zm-8.4-3h6.9v-6.9h-6.9v6.9z"/><path d="M300.8 40.4h-9.9c-.8 0-1.5-.7-1.5-1.5V29c0-.8.7-1.5 1.5-1.5h9.9c.8 0 1.5.7 1.5 1.5v9.9c0 .8-.6 1.5-1.5 1.5zm-8.4-3h6.9v-6.9h-6.9v6.9zm76.7-255.1c0-7-5.7-12.7-12.7-12.7-7 0-12.7 5.7-12.7 12.7 0 6.5 4.9 11.8 11.2 12.6v7.5c0 .8.7 1.5 1.5 1.5s1.5-.7 1.5-1.5v-7.5c6.3-.8 11.2-6.1 11.2-12.6zm-11.2 9.6v-7.1l3.6-3.6c.6-.6.6-1.5 0-2.1-.6-.6-1.5-.6-2.1 0l-1.5 1.5v-1.7c0-.8-.7-1.5-1.5-1.5s-1.5.7-1.5 1.5v6.5l-1.6-1.6c-.6-.6-1.5-.6-2.1 0-.6.6-.6 1.5 0 2.1l3.7 3.7v2.4c-4.6-.7-8.2-4.7-8.2-9.6 0-5.3 4.3-9.7 9.7-9.7 5.3 0 9.7 4.3 9.7 9.7 0 4.7-3.5 8.7-8.2 9.5zM229.5 173.2c0-7-5.7-12.7-12.7-12.7-7 0-12.7 5.7-12.7 12.7 0 6.5 4.9 11.8 11.2 12.6v7.5c0 .8.7 1.5 1.5 1.5s1.5-.7 1.5-1.5v-7.5c6.3-.8 11.2-6.1 11.2-12.6zm-11.2 9.5v-7.1l3.6-3.6c.6-.6.6-1.5 0-2.1-.6-.6-1.5-.6-2.1 0l-1.5 1.5v-1.7c0-.8-.7-1.5-1.5-1.5s-1.5.7-1.5 1.5v6.5l-1.6-1.6c-.6-.6-1.5-.6-2.1 0-.6.6-.6 1.5 0 2.1l3.7 3.7v2.4c-4.6-.7-8.2-4.7-8.2-9.6 0-5.3 4.3-9.7 9.7-9.7 5.3 0 9.7 4.3 9.7 9.7 0 4.8-3.6 8.8-8.2 9.5zm336.2-9.5c0-7-5.7-12.7-12.7-12.7-7 0-12.7 5.7-12.7 12.7 0 6.5 4.9 11.8 11.2 12.6v7.5c0 .8.7 1.5 1.5 1.5s1.5-.7 1.5-1.5v-7.5c6.3-.8 11.2-6.1 11.2-12.6zm-11.2 9.5v-7.1l3.6-3.6c.6-.6.6-1.5 0-2.1-.6-.6-1.5-.6-2.1 0l-1.5 1.5v-1.7c0-.8-.7-1.5-1.5-1.5s-1.5.7-1.5 1.5v6.5l-1.6-1.6c-.6-.6-1.5-.6-2.1 0-.6.6-.6 1.5 0 2.1l3.7 3.7v2.4c-4.6-.7-8.2-4.7-8.2-9.6 0-5.3 4.3-9.7 9.7-9.7 5.3 0 9.7 4.3 9.7 9.7 0 4.8-3.6 8.8-8.2 9.5zm-517.9-9.5c0-7-5.7-12.7-12.7-12.7-7 0-12.7 5.7-12.7 12.7 0 6.5 4.9 11.8 11.2 12.6v7.5c0 .8.7 1.5 1.5 1.5s1.5-.7 1.5-1.5v-7.5c6.3-.8 11.2-6.1 11.2-12.6zm-11.2 9.5v-7.1l3.6-3.6c.6-.6.6-1.5 0-2.1-.6-.6-1.5-.6-2.1 0l-1.5 1.5v-1.7c0-.8-.7-1.5-1.5-1.5s-1.5.7-1.5 1.5v6.5l-1.6-1.6c-.6-.6-1.5-.6-2.1 0-.6.6-.6 1.5 0 2.1l3.7 3.7v2.4C6.6 182 3 178 3 173.2c0-5.3 4.3-9.7 9.7-9.7 5.3 0 9.7 4.3 9.7 9.7 0 4.8-3.6 8.8-8.2 9.5zm819.7-422.1c-.5 0-.9 0-1.3.1h-.3c-.4 0-.9.1-1.3.2-.5.1-.9.2-1.4.3h-.1c-.5.1-.9.3-1.4.5-3.7-6.2-10.3-10-17.6-10-11.3 0-20.5 9.2-20.5 20.5s9.2 20.5 20.5 20.5h23.4c8.8 0 16-7.2 16-16s-7.2-16.1-16-16.1zm0 29.1h-23.4c-9.6 0-17.5-7.8-17.5-17.5s7.8-17.5 17.5-17.5c6.1 0 11.7 3.2 14.9 8.4-1.9 1.2-3.5 2.7-4.8 4.6-.5.7-.3 1.6.4 2.1s1.6.3 2.1-.4c1.3-1.9 3.1-3.4 5.1-4.4.4-.2.8-.4 1.3-.5.1 0 .3-.1.4-.1.3-.1.7-.2 1-.3.3-.1.6-.1.9-.2.2 0 .4-.1.6-.1.5-.1 1-.1 1.6-.1 7.2 0 13 5.9 13 13-.1 7.2-5.9 13-13.1 13zm-35.1-84h29.1c8.3 0 15.1-6.8 15.1-15.1s-6.8-15.1-15.1-15.1c-4.8 0-9.2 2.2-12 6-.4-.2-.9-.4-1.3-.6h-.1c-.4-.1-.8-.3-1.3-.4h-.1c-.4-.1-.9-.2-1.3-.2h-.3c-.4 0-.9-.1-1.3-.1-4.5 0-8.6 2.3-10.9 6.2h-.3c-.7 0-1.3.1-1.9.2-4.4.9-7.7 4.8-7.7 9.5-.3 5.3 4 9.6 9.4 9.6zm0-16.4h.5c.1 0 .3 0 .5.1 1.4.2 2.7.9 3.7 1.9.6.6 1.5.6 2.1 0 .6-.6.6-1.5 0-2.1-1-1-2.1-1.7-3.3-2.2 1.8-2.4 4.6-3.8 7.7-3.8.5 0 1 0 1.4.1.4.1.8.2 1.1.3.1 0 .2 0 .3.1.9.3 1.8.7 2.6 1.2 1.6 1 2.8 2.5 3.6 4.3.2.6.8.9 1.4.9.2 0 .4 0 .6-.1.8-.3 1.1-1.2.8-2-.8-1.9-2-3.5-3.5-4.7 2.3-2.9 5.7-4.7 9.5-4.7 6.7 0 12.1 5.4 12.1 12.1 0 6.7-5.4 12.1-12.1 12.1h-29.1c-3.7 0-6.7-3-6.7-6.7 0-3.5 2.6-6.3 6-6.7.3 0 .5-.1.8-.1zm-72.2 94.8h-4.8v-1.9c0-.8-.7-1.5-1.5-1.5s-1.5.7-1.5 1.5v20.1c0 .8.7 1.5 1.5 1.5s1.5-.7 1.5-1.5v-7.7h4.8c.8 0 1.5-.7 1.5-1.5v-7.5c0-.8-.6-1.5-1.5-1.5zm-1.5 7.6h-3.3v-4.5h3.3v4.5zM272.2 175h-4.8v-1.9c0-.8-.7-1.5-1.5-1.5s-1.5.7-1.5 1.5v20.1c0 .8.7 1.5 1.5 1.5s1.5-.7 1.5-1.5v-7.7h4.8c.8 0 1.5-.7 1.5-1.5v-7.5c0-.8-.7-1.5-1.5-1.5zm-1.5 7.5h-3.3V178h3.3v4.5zm-831-431.7c-6.8-1.5-13.6-2.9-20.5-4.2v-59.9c5.4 5.2 11.8 10.7 19 16.2.3.2.6.3.9.3.5 0 .9-.2 1.2-.6.5-.7.4-1.6-.3-2.1-28.4-21.5-42.7-43.6-42.8-43.8l-.1-.1s0-.1-.1-.1l-.1-.1s-.1 0-.1-.1l-.1-.1h-1.3l-.1.1s-.1 0-.1.1c-.2.2-8 8.8-21.6 17.9-15.7 10.6-39.1 21.9-67.3 21.9-48.8 0-83.4-34.1-88.3-39.2-.1-.4-.4-.8-.9-1-.2-.1-.5-.1-.7-.1h-.8c-.1 0-.1.1-.2.1l-.1.1h-.1l-.1.1-.1.1c-.1.2-14.4 22.3-42.8 43.8-.7.5-.8 1.4-.3 2.1.3.4.7.6 1.2.6.3 0 .6-.1.9-.3 7.3-5.5 13.6-11 19-16.2v59.9c-6.9 1.3-13.7 2.7-20.5 4.2-.8.2-1.3 1-1.1 1.8.2.7.8 1.2 1.5 1.2h.3c11.9-2.7 23.9-5 36-6.9l-3.8 24.5c-2.5-1.4-5.3-2.7-9-2.7-4.2 0-7.1 1.7-10 3.3-3.1 1.8-6.3 3.6-11.7 3.6-.8 0-1.5.7-1.5 1.5s.7 1.5 1.5 1.5c6.2 0 9.9-2.1 13.2-4 2.7-1.6 5-2.9 8.5-2.9 3.4 0 5.8 1.4 8.5 2.9.3.1.5.3.8.5 3.1 1.8 6.7 3.6 12.3 3.6 3.6 0 6.3-.7 8.6-1.7 1.7-.7 3.1-1.5 4.5-2.3 2.7-1.6 5-2.9 8.5-2.9 3.4 0 5.8 1.4 8.5 2.9 3.3 1.9 7 4 13.1 4 6.2 0 9.9-2.1 13.2-4 2.7-1.6 5-2.9 8.5-2.9 3.4 0 5.8 1.4 8.5 2.9 3.3 1.9 7 4 13.1 4 6.2 0 9.9-2.1 13.2-4 2.7-1.6 5-2.9 8.5-2.9 3.4 0 5.8 1.4 8.5 2.9 3.3 1.9 7 4 13.1 4 6.2 0 9.9-2.1 13.2-4 2.7-1.6 5-2.9 8.5-2.9 3.4 0 5.8 1.4 8.5 2.9 2.2 1.3 4.7 2.6 7.9 3.4.1 0 .2.1.3.1h.1c1.4.3 3 .5 4.8.5 6.2 0 9.9-2.1 13.2-4 2.7-1.6 5-2.9 8.5-2.9 3.4 0 5.8 1.4 8.5 2.9 3.3 1.9 7 4 13.1 4 .8 0 1.5-.7 1.5-1.5s-.7-1.5-1.5-1.5c-5.3 0-8.5-1.8-11.6-3.6-2.8-1.6-5.8-3.3-10-3.3-2.1 0-4 .4-5.6 1.1l-3.5-22.9c12 1.9 24 4.2 35.8 6.9h.3c.7 0 1.3-.5 1.5-1.2-.3-.5-.8-1.3-1.6-1.5zm-37.7-7.2c-.2-.1-.4-.1-.6-.1-.3 0-.5-.1-.8-.1l15.7-29.2v31.9c-4.8-.9-9.5-1.7-14.3-2.5zm-26.3-3.6v-25.7l15.4 27.6h-.1c-5.1-.7-10.2-1.3-15.3-1.9zm-69.7-4h-7.2l7.2-15.1 7.2 15.1c-2.4.1-4.8 0-7.2 0zm-84.9 6c-.1 0-.1 0 0 0l15.3-27.7v25.7c-5.1.6-10.2 1.2-15.3 2zm84.9-42.6c2.4 0 4.8-.1 7.1-.2L-694-286l-7.1-14.9c2.4.2 4.7.3 7.1.3zm69.8 9l18.7-43.6v77.2l-18.7-33.6zm21.7-43.5l18.4 43.5-18.4 34.2v-77.7zm-21.8 36.3v-24.7c6.9-4.7 12.3-9.3 16-12.6l-16 37.3zm-3 35.3l-16-23.5 16-31.1v54.6zm-16.3-29.6v-19.3c5-2.4 9.7-5 13.9-7.6l-13.9 26.9zm-3 25.3l-7.6-17.6 7.6-19.7v37.3zm-9.3-21.6l-6.8-15.8c5.2-1.5 10.2-3.4 14.8-5.4l-8 21.2zm-19.5 2l-6.7-13.9c5.1-.6 10-1.5 14.7-2.6l-8 16.5zm9.3-12.2v31.3l-7.6-15.7 7.6-15.6zm-19.8 3.7v26.8l-6.4-13.4 6.4-13.4zm-9.7 13.4L-702-269v-26.8l6.4 13.3zm-16.9-4.9l-8-16.5c4.7 1.2 9.6 2.1 14.7 2.6l-6.7 13.9zm-1.7 3.4l-7.6 15.7v-31.3l7.6 15.6zm-27.1-21.2l7.6 19.7-7.6 17.6v-37.3zm9.2 15.8l-8.1-21.1c4.7 2 9.6 3.9 14.8 5.4l-6.7 15.7zm-12.2-3.7l-13.9-26.9c4.2 2.6 8.8 5.2 13.9 7.6v19.3zm-16.3-25l16 31.1-16 23.5v-54.6zm-3 19.3l-16-37.3c3.7 3.3 9.1 7.9 16 12.6v24.7zm-18.9 40.8v-77.2l18.7 43.6-18.7 33.6zm-3 .6l-18.4-34.2 18.4-43v77.2zm41.2-24.6v20.2c-4.9.4-9.8.9-14.7 1.4l14.7-21.6zm19.5-16.8v35.6c-5.2.3-10.5.6-15.7 1l15.7-36.6zm19.8 2.8v32.1c-5.3.1-10.6.3-15.8.5L-705-296zm22.1 32.2V-296l15.8 32.6c-5.3-.2-10.5-.3-15.8-.4zm19.8-35l15.7 36.6c-5.2-.4-10.5-.7-15.7-1v-35.6zm19.5 36.9V-282l14.7 21.6c-4.9-.6-9.8-1.1-14.7-1.5zm59.9-54.3v17.7l-14-33.2c3.4 4.3 8.1 9.6 14 15.5zm-206-16l-14.5 33.8v-17.8c6.1-6.1 11-11.7 14.5-16zm-14.5 46.4l15.7 29.2c-.3 0-.5.1-.8.1-.1 0-.3 0-.4.1-4.9.8-9.7 1.6-14.5 2.5v-31.9zm24.1 31l.8 5.6h-4.7c-.8 0-1.5.7-1.5 1.5s.7 1.5 1.5 1.5h5.2l1.8 12.2h-7.9c-.8 0-1.5.7-1.5 1.5s.7 1.5 1.5 1.5h8.3l.8 5.5c-1.8.6-3.9 1.1-6.5 1.1-4.3 0-7.2-1.2-9.9-2.6l1.7-10.8h6.4c.8 0 1.5-.7 1.5-1.5s-.7-1.5-1.5-1.5h-5.9l2-12.8c2.7-.5 5.3-.9 7.9-1.2zm149.2 23.4c-4.2 0-7.1 1.7-10 3.3-3.1 1.8-6.3 3.6-11.7 3.6-5.3 0-8.5-1.8-11.6-3.6-2.8-1.6-5.8-3.3-10-3.3s-7.1 1.7-10 3.3c-3.1 1.8-6.3 3.6-11.7 3.6-5.3 0-8.5-1.8-11.6-3.6-2.8-1.6-5.8-3.3-10-3.3s-7.1 1.7-10 3.3c-3.1 1.8-6.3 3.6-11.7 3.6-5.3 0-8.5-1.8-11.6-3.6-2.8-1.6-5.8-3.3-10-3.3s-7.1 1.7-10 3.3c-.8.4-1.5.9-2.3 1.3l-4.3-28.5c27.5-3.8 55.3-5.7 83.2-5.7 27.9 0 55.8 1.9 83.3 5.7l-4.5 29.9c-2.2-.7-3.9-1.7-5.7-2.7-2.6-1.6-5.6-3.3-9.8-3.3zm33-9.5h-5.9c-.8 0-1.5.7-1.5 1.5s.7 1.5 1.5 1.5h6.4l1.4 8.9-1.5.9c-3.1 1.8-6.3 3.6-11.7 3.6-1.1 0-2-.1-3-.2l1-6.4h8.3c.8 0 1.5-.7 1.5-1.5s-.7-1.5-1.5-1.5h-7.9l1.8-12.2h5.2c.8 0 1.5-.7 1.5-1.5s-.7-1.5-1.5-1.5h-4.7l.8-5.6 7.8 1.2 2 12.8zm-11.4 41.3c-5.3 0-8.5-1.8-11.6-3.6-2.8-1.6-5.8-3.3-10-3.3s-7.1 1.7-10 3.3c-3.1 1.8-6.3 3.6-11.7 3.6-5.3 0-8.5-1.8-11.6-3.6-2.8-1.6-5.8-3.3-10-3.3s-7.1 1.7-10 3.3c-3.1 1.8-6.3 3.6-11.7 3.6-5.3 0-8.5-1.8-11.6-3.6-2.8-1.6-5.8-3.3-10-3.3s-7.1 1.7-10 3.3c-3.1 1.8-6.3 3.6-11.7 3.6-5.3 0-8.5-1.8-11.6-3.6-2.8-1.6-5.8-3.3-10-3.3s-7.1 1.7-10 3.3c-3.1 1.8-6.3 3.6-11.7 3.6-.8 0-1.5.7-1.5 1.5s.7 1.5 1.5 1.5c6.2 0 9.9-2.1 13.2-4 2.7-1.6 5-2.9 8.5-2.9 3.4 0 5.8 1.4 8.5 2.9 3.3 1.9 7 4 13.1 4 6.2 0 9.9-2.1 13.2-4 2.7-1.6 5-2.9 8.5-2.9 3.4 0 5.8 1.4 8.5 2.9 3.3 1.9 7 4 13.1 4 6.2 0 9.9-2.1 13.2-4 2.7-1.6 5-2.9 8.5-2.9 3.4 0 5.8 1.4 8.5 2.9 3.3 1.9 7 4 13.1 4 6.2 0 9.9-2.1 13.2-4 2.7-1.6 5-2.9 8.5-2.9 3.4 0 5.8 1.4 8.5 2.9 3.3 1.9 7 4 13.1 4 .8 0 1.5-.7 1.5-1.5s-.7-1.5-1.5-1.5z"/><path d="M374.4 106.9v17.7l-14-33.2c3.4 4.3 8.1 9.7 14 15.5zm-40.6-7.3c6.9-4.7 12.3-9.3 16-12.6l-16 37.3V99.6zm-139.3 63.6c-5.1.6-10.2 1.2-15.3 1.9h-.1l15.4-27.7v25.8zm19.3-1.9c-4.9.4-9.8.9-14.7 1.4l14.7-21.6v20.2zm50.4-2.1H257l7.2-15.1 7.2 15.1h-7.2zm66.6.4l-16-23.5 16-31.1v54.6zm-16.3-48.9c5-2.4 9.7-5 13.9-7.6L314.5 130v-19.3zm0 30.4l14.7 21.6c-4.9-.5-9.8-1-14.7-1.4v-20.2zm-3 14.2l-7.5-17.6 7.5-19.7v37.3zm-1.1-42.7l-8.1 21.1-6.8-15.8c5.3-1.4 10.2-3.3 14.9-5.3zM295 124.4l15.7 36.6c-5.2-.4-10.5-.7-15.7-1v-35.6zm-3 30.5l-7.6-15.7 7.6-15.6v31.3zm-1.3-35.6l-8 16.5-6.7-13.9c5.1-.6 10-1.5 14.7-2.6zm-15.5 7.9l15.8 32.6c-5.3-.2-10.6-.4-15.8-.5v-32.1zm-3 26.9l-6.4-13.4 6.4-13.4v26.8zm-8-31.5c2.4 0 4.8-.1 7.1-.2l-7.1 14.9-7.1-14.9c2.3.1 4.7.2 7.1.2zm-8.1 4.7l6.4 13.4-6.4 13.4v-26.8zm-3 32c-5.3.1-10.6.2-15.8.5l15.8-32.6v32.1zm-.8-37.4l-6.7 13.9-8-16.5c4.7 1.1 9.6 2 14.7 2.6zm-16 1.7l7.6 15.6-7.6 15.7v-31.3zm-3 36.4c-5.2.3-10.5.6-15.7 1l15.7-36.6V160zm-.5-42l-6.8 15.8-8.1-21.1c4.7 1.9 9.7 3.8 14.9 5.3zm-16 0l7.6 19.7-7.6 17.6V118zm-3-7.3V130l-13.9-26.9c4.2 2.6 8.9 5.2 13.9 7.6zm-16.3-5.7l16 31.1-16 23.5V105zm-3-5.4v24.7l-16-37.3c3.7 3.4 9.1 7.9 16 12.6zM175.7 88l18.7 43.6-18.7 33.6V88zm-21.8 18.9c6.1-6.1 11-11.6 14.5-16l-14.5 33.8v-17.8zm18.8-18.3v77.2l-18.4-34.2 18.4-43zm-18.8 80.6v-31.8l15.7 29.2c-.3 0-.5.1-.8.1-.1 0-.3 0-.4.1-4.8.7-9.6 1.5-14.5 2.4zm30.9 23.8l-3.8-25.1c27.5-3.8 55.3-5.7 83.2-5.7 14 0 27.9.5 41.8 1.4 10.3.7 20.5 1.7 30.8 2.9 1.4.2 2.9.3 4.3.5 1.1-.9 2.2-1.7 3.3-2.6-1.4-.2-2.8-.4-4.2-.5-2.1-.3-4.2-.5-6.3-.8v-25.7l12.1 21.8 1.5 2.7c.8-.7 1.6-1.3 2.3-1.9l-1.5-2.7-14.3-25.7L352.7 88v69.6c1-.9 2-1.7 3-2.6V88.1l18.4 43.5-.3.5-6.2 11.6c3.6-3.7 6.9-7.4 9.8-11.1v-22.8c2.3 2.2 4.7 4.4 7.4 6.7.8.7 1.6 1.4 2.4 2l1.5-2.7-2.4-2.1c-20.4-17.9-30.7-33.8-30.8-34l-.1-.1s0-.1-.1-.1l-.1-.1s-.1 0-.1-.1c0 0-.1 0-.1-.1h-.4c-.1 0 0 0 0 0h-1s-.1 0-.1.1c0 0-.1 0-.1.1-.2.2-8 8.8-21.6 17.9-15.7 10.6-39.1 21.9-67.3 21.9-24.4 0-45.3-8.5-60.6-17.7-15.4-9.2-25.2-19-27.7-21.5-.1-.4-.4-.8-.9-1-.2-.1-.5-.1-.7-.1h-.8c-.1 0-.1.1-.2.1 0 0-.1 0-.1.1 0 0 0 .1-.1.1l-.1.1c-.1.1-3.7 5.7-10.8 13.9-7.1 8.2-17.8 19.1-32 29.9-.7.5-.8 1.4-.3 2.1.3.4.7.6 1.2.6.3 0 .6-.1.9-.3 7.2-5.5 13.6-11 19-16.2v59.9c-6.8 1.3-13.6 2.7-20.4 4.2-.8.2-1.3.9-1.2 1.6.1.8.8 1.4 1.5 1.4h.3c11.9-2.7 23.9-5 36-6.9l-3.6 23c-.1.9.6 1.7 1.5 1.7.7 0 1.4-.5 1.5-1.3l1.3-8.1h6.4c.8 0 1.5-.7 1.5-1.5s-.7-1.5-1.5-1.5h-5.9l2-12.8 7.8-1.2.8 5.6h-4.7c-.8 0-1.5.7-1.5 1.5s.7 1.5 1.5 1.5h5.2l1.8 12.2h-7.9c-.8 0-1.5.7-1.5 1.5s.7 1.5 1.5 1.5h8.3l.2 1.3c.1.7.7 1.3 1.5 1.3.5.5 1.2-.3 1.1-1.2z"/></svg>