<svg xmlns="http://www.w3.org/2000/svg" viewBox="0 0 384 147"><path d="M1.5 147c-.4 0-.8-.1-1-.4-.6-.6-.6-1.5 0-2.1.3-.3 25.7-26.5 61.8-52.4 33.4-23.9 83-52.5 129.8-52.5s96.4 28.5 129.8 52.5c36.1 25.9 61.5 52.1 61.8 52.4.6.6.6 1.5 0 2.1-.6.6-1.5.6-2.1 0-.3-.3-25.5-26.3-61.4-52.1-33-23.7-82-51.9-128-51.9s-95 28.2-128 51.9c-35.9 25.7-61.1 51.8-61.4 52-.5.4-.9.5-1.3.5z"/><path d="M197.3 42.6h-9.9c-.8 0-1.5-.7-1.5-1.5v-9.9c0-.8.7-1.5 1.5-1.5h9.9c.8 0 1.5.7 1.5 1.5v9.9c0 .8-.7 1.5-1.5 1.5zm-8.4-3h6.9v-6.9h-6.9v6.9z"/><path d="M197.3 32.7h-9.9c-.8 0-1.5-.7-1.5-1.5v-9.9c0-.8.7-1.5 1.5-1.5h9.9c.8 0 1.5.7 1.5 1.5v9.9c0 .8-.7 1.5-1.5 1.5zm-8.4-3h6.9v-6.9h-6.9v6.9z"/><path d="M197.3 22.8h-9.9c-.8 0-1.5-.7-1.5-1.5v-9.9c0-.8.7-1.5 1.5-1.5h9.9c.8 0 1.5.7 1.5 1.5v9.9c0 .8-.7 1.5-1.5 1.5zm-8.4-3h6.9v-6.9h-6.9v6.9z"/><path d="M207.2 22.8h-9.9c-.8 0-1.5-.7-1.5-1.5v-9.9c0-.8.7-1.5 1.5-1.5h9.9c.8 0 1.5.7 1.5 1.5v9.9c0 .8-.7 1.5-1.5 1.5zm-8.4-3h6.9v-6.9h-6.9v6.9zm-11.4 3h-9.9c-.8 0-1.5-.7-1.5-1.5v-9.9c0-.8.7-1.5 1.5-1.5h9.9c.8 0 1.5.7 1.5 1.5v9.9c0 .8-.7 1.5-1.5 1.5zm-8.4-3h6.9v-6.9H179v6.9z"/><path d="M197.3 12.9h-9.9c-.8 0-1.5-.7-1.5-1.5V1.5c0-.8.7-1.5 1.5-1.5h9.9c.8 0 1.5.7 1.5 1.5v9.9c0 .8-.7 1.5-1.5 1.5zm-8.4-3h6.9V3h-6.9v6.9z"/></svg>