<svg xmlns="http://www.w3.org/2000/svg" viewBox="0 0 53.8 30.1"><path d="M9.7 30.1h29.1c8.3 0 15.1-6.8 15.1-15.1S47.1 0 38.7 0c-4.8 0-9.2 2.2-12 6-.4-.2-.9-.4-1.3-.6h-.1c-.4-.2-.8-.3-1.3-.4h-.1c-.4-.1-.9-.2-1.3-.2h-.3c-.4 0-.9-.1-1.3-.1-4.5 0-8.6 2.3-10.9 6.2h-.3c-.7 0-1.3.1-1.9.2-4.6.8-7.9 4.7-7.9 9.4 0 5.3 4.3 9.6 9.7 9.6zm0-16.3h.5c.1 0 .3 0 .5.1 1.4.2 2.7.9 3.7 1.9.6.6 1.5.6 2.1 0 .6-.6.6-1.5 0-2.1-1-1-2.1-1.7-3.3-2.2C15.1 9 17.9 7.6 21 7.6c.5 0 1 0 1.4.1.4.1.8.2 1.1.3.1 0 .2 0 .3.1.9.3 1.8.7 2.6 1.2 1.6 1 2.8 2.5 3.6 4.3.2.6.8.9 1.4.9.2 0 .4 0 .6-.1.8-.3 1.1-1.2.8-2-.8-1.9-2-3.5-3.5-4.7C31.5 4.7 35 3 38.7 3c6.7 0 12.1 5.4 12.1 12.1 0 6.7-5.4 12.1-12.1 12.1h-29c-3.7 0-6.7-3-6.7-6.7 0-3.5 2.6-6.3 6-6.7h.7z"/></svg>