<svg xmlns="http://www.w3.org/2000/svg" viewBox="0 0 60 41"><path d="M43.9 8.9c-.5 0-.9 0-1.3.1h-.3c-.4 0-.9.1-1.3.2-.5.1-.9.2-1.4.3h-.1c-.5.2-1 .3-1.4.5C34.4 3.8 27.8 0 20.5 0 9.2 0 0 9.2 0 20.5S9.2 41 20.5 41h23.4c8.8 0 16-7.2 16-16s-7.1-16.1-16-16.1zm0 29.1H20.5C10.8 38 3 30.1 3 20.5S10.8 3 20.5 3c6.1 0 11.7 3.2 14.9 8.4-1.9 1.2-3.5 2.7-4.8 4.6-.5.7-.3 1.6.4 2.1s1.6.3 2.1-.4c1.3-1.9 3.1-3.4 5.1-4.4.4-.2.8-.4 1.3-.5.1 0 .3-.1.4-.1.3-.1.7-.2 1-.3.3-.1.6-.1.9-.2.2 0 .4-.1.6-.1.5-.1 1-.1 1.6-.1 7.2 0 13 5.9 13 13s-5.9 13-13.1 13z"/></svg>