<svg xmlns="http://www.w3.org/2000/svg" viewBox="0 0 269.8 147.3"><path d="M268.6 94.8c-6.8-1.5-13.6-2.9-20.5-4.2V30.7c5.4 5.2 11.8 10.7 19 16.2.3.2.6.3.9.3.5 0 .9-.2 1.2-.6.5-.7.4-1.6-.3-2.1C240.5 23 226.3.9 226.1.7l-.1-.1s0-.1-.1-.1l-.1-.1s-.1 0-.1-.1l-.1-.1h-1.3l-.1.1s-.1 0-.1.1c-.2.2-8 8.8-21.6 17.9-16 10.7-39.5 22.1-67.6 22.1-48.8 0-83.4-34.1-88.3-39.2-.1-.4-.4-.8-.9-1-.2-.2-.5-.2-.7-.2h-.8c-.1 0-.1.1-.2.1l-.1.1h-.1l-.1.1-.1.1C43.5.9 29.2 23 .8 44.5c-.7.5-.8 1.4-.3 2.1.3.4.7.6 1.2.6.3 0 .6-.1.9-.3 7.3-5.5 13.6-11 19-16.2v59.9C14.8 91.9 8 93.2 1.2 94.8c-.8.2-1.3 1-1.1 1.8.2.7.8 1.2 1.5 1.2h.3c11.9-2.7 23.9-5 36-6.9L34 115.3c-2.5-1.4-5.3-2.7-9-2.7-4.2 0-7.1 1.7-10 3.3-3.1 1.8-6.3 3.6-11.7 3.6-.8 0-1.5.7-1.5 1.5s.7 1.5 1.5 1.5c6.2 0 9.9-2.1 13.2-4 2.7-1.6 5-2.9 8.5-2.9 3.4 0 5.8 1.4 8.5 2.9.3.1.5.3.8.5 3.1 1.8 6.7 3.6 12.3 3.6 3.6 0 6.3-.7 8.6-1.7 1.7-.7 3.1-1.5 4.5-2.3 2.7-1.6 5-2.9 8.5-2.9 3.4 0 5.8 1.4 8.5 2.9 3.3 1.9 7 4 13.1 4 6.2 0 9.9-2.1 13.2-4 2.7-1.6 5-2.9 8.5-2.9 3.4 0 5.8 1.4 8.5 2.9 3.3 1.9 7 4 13.1 4 6.2 0 9.9-2.1 13.2-4 2.7-1.6 5-2.9 8.5-2.9 3.4 0 5.8 1.4 8.5 2.9 3.3 1.9 7 4 13.1 4 6.2 0 9.9-2.1 13.2-4 2.7-1.6 5-2.9 8.5-2.9 3.4 0 5.8 1.4 8.5 2.9 2.2 1.3 4.7 2.6 7.9 3.4.1 0 .2.1.3.1h.1c1.4.3 3 .5 4.8.5 6.2 0 9.9-2.1 13.2-4 2.7-1.6 5-2.9 8.5-2.9 3.4 0 5.8 1.4 8.5 2.9 3.3 1.9 7 4 13.1 4 .8 0 1.5-.7 1.5-1.5s-.7-1.5-1.5-1.5c-5.3 0-8.5-1.8-11.6-3.6-2.8-1.6-5.8-3.3-10-3.3-2.1 0-4 .4-5.6 1.1l-3.5-22.9c12 1.9 24 4.2 35.8 6.9h.3c.7 0 1.3-.5 1.5-1.2 0-.8-.5-1.6-1.3-1.8zm-37.8-7.2c-.2-.1-.4-.1-.6-.1-.3 0-.5-.1-.8-.1l15.7-29.2V90c-4.7-.9-9.5-1.7-14.3-2.4zM204.5 84V58.3l15.4 27.6h-.1c-5.1-.7-10.2-1.3-15.3-1.9zm-69.6-4h-7.2l7.2-15.1 7.2 15.1h-7.2zm-85 5.9l15.3-27.7V84c-5.1.6-10.2 1.2-15.3 1.9zm85-42.5c2.4 0 4.8-.1 7.1-.2L134.9 58l-7.1-14.9c2.3.2 4.7.3 7.1.3zm69.8 9l18.7-43.6V86l-18.7-33.6zm21.7-43.5l18.4 43.5-18.4 34.2V8.9zm-21.9 36.3V20.4c6.9-4.7 12.3-9.3 16-12.6l-16 37.4zm-3 35.2l-16-23.5 16-31.1v54.6zm-16.3-29.5V31.5c5-2.4 9.7-5 13.9-7.6l-13.9 27zm-3 25.2l-7.6-17.6 7.6-19.7v37.3zM173 54.5l-6.8-15.8c5.2-1.5 10.2-3.4 14.8-5.4l-8 21.2zm-19.6 2.1l-6.7-13.9c5.1-.6 10-1.5 14.7-2.6l-8 16.5zm9.3-12.2v31.3L155.1 60l7.6-15.6zm-19.8 3.7v26.8l-6.4-13.4 6.4-13.4zm-9.7 13.4l-6.4 13.4V48.1l6.4 13.4zm-16.9-4.9l-8-16.5c4.7 1.2 9.6 2.1 14.7 2.6l-6.7 13.9zm-1.7 3.4L107 75.7V44.4l7.6 15.6zM87.5 38.8l7.6 19.7-7.6 17.6V38.8zm9.3 15.7l-8.1-21.1c4.7 2 9.6 3.9 14.8 5.4l-6.7 15.7zm-12.3-3.6l-13.9-27c4.2 2.6 8.8 5.2 13.9 7.6v19.4zM68.2 25.8l16 31.1-16 23.5V25.8zm-3 19.4l-16-37.3c3.7 3.3 9.1 7.9 16 12.6v24.7zM46.4 86V8.8l18.7 43.6L46.4 86zm-3 .6L24.9 52.4l18.4-43v77.2zm41.1-24.7v20.2c-4.9.4-9.8.9-14.7 1.4l14.7-21.6zM104 45.2v35.6c-5.2.3-10.5.6-15.7 1L104 45.2zm19.8 2.8v32.1c-5.3.1-10.6.3-15.8.5L123.8 48zm22.1 32.1V48l15.8 32.6c-5.2-.2-10.5-.4-15.8-.5zm19.8-34.9l15.7 36.6c-5.2-.4-10.5-.7-15.7-1V45.2zm19.5 36.9V61.9L200 83.5c-4.9-.6-9.8-1-14.8-1.4zm59.9-54.4v17.7l-14-33.2c3.4 4.3 8.1 9.7 14 15.5zm-206-16L24.6 45.5V27.7c6.2-6.1 11-11.6 14.5-16zM24.6 58.1l15.7 29.2c-.3 0-.5.1-.8.1-.1 0-.3 0-.4.1-4.9.8-9.7 1.6-14.5 2.5V58.1zm24.2 31l.8 5.6h-4.7c-.8 0-1.5.7-1.5 1.5s.7 1.5 1.5 1.5H50l1.8 12.2H44c-.8 0-1.5.7-1.5 1.5s.7 1.5 1.5 1.5h8.3l.8 5.5c-1.8.6-3.9 1.1-6.5 1.1-4.3 0-7.2-1.2-9.9-2.6l1.7-10.8h6.4c.8 0 1.5-.7 1.5-1.5s-.7-1.5-1.5-1.5H39l2-12.8c2.5-.4 5.1-.8 7.8-1.2zM198 112.6c-4.2 0-7.1 1.7-10 3.3-3.1 1.8-6.3 3.6-11.7 3.6-5.3 0-8.5-1.8-11.6-3.6-2.8-1.6-5.8-3.3-10-3.3s-7.1 1.7-10 3.3c-3.1 1.8-6.3 3.6-11.7 3.6-5.3 0-8.5-1.8-11.6-3.6-2.8-1.6-5.8-3.3-10-3.3s-7.1 1.7-10 3.3c-3.1 1.8-6.3 3.6-11.7 3.6-5.3 0-8.5-1.8-11.6-3.6-2.8-1.6-5.8-3.3-10-3.3s-7.1 1.7-10 3.3c-.8.4-1.5.9-2.3 1.3l-4.3-28.5C79.2 84.9 107 83 134.9 83c27.9 0 55.8 1.9 83.3 5.7l-4.5 29.9c-2.2-.7-3.9-1.7-5.7-2.7-2.9-1.6-5.8-3.3-10-3.3zm32.9-9.5H225c-.8 0-1.5.7-1.5 1.5s.7 1.5 1.5 1.5h6.4l1.4 8.9-1.5.9c-3.1 1.8-6.3 3.6-11.7 3.6-1.1 0-2-.1-3-.2l1-6.4h8.3c.8 0 1.5-.7 1.5-1.5s-.7-1.5-1.5-1.5H218l1.8-12.2h5.2c.8 0 1.5-.7 1.5-1.5s-.7-1.5-1.5-1.5h-4.7l.8-5.6 7.8 1.2 2 12.8zm-11.3 41.2c-5.3 0-8.5-1.8-11.6-3.6-2.8-1.6-5.8-3.3-10-3.3s-7.1 1.7-10 3.3c-3.1 1.8-6.3 3.6-11.7 3.6-5.3 0-8.5-1.8-11.6-3.6-2.8-1.6-5.8-3.3-10-3.3s-7.1 1.7-10 3.3c-3.1 1.8-6.3 3.6-11.7 3.6-5.3 0-8.5-1.8-11.6-3.6-2.8-1.6-5.8-3.3-10-3.3s-7.1 1.7-10 3.3c-3.1 1.8-6.3 3.6-11.7 3.6-5.3 0-8.5-1.8-11.6-3.6-2.8-1.6-5.8-3.3-10-3.3s-7.1 1.7-10 3.3c-3.1 1.8-6.3 3.6-11.7 3.6-.8 0-1.5.7-1.5 1.5s.7 1.5 1.5 1.5c6.2 0 9.9-2.1 13.2-4 2.7-1.6 5-2.9 8.5-2.9 3.4 0 5.8 1.4 8.5 2.9 3.3 1.9 7 4 13.1 4 6.2 0 9.9-2.1 13.2-4 2.7-1.6 5-2.9 8.5-2.9 3.4 0 5.8 1.4 8.5 2.9 3.3 1.9 7 4 13.1 4 6.2 0 9.9-2.1 13.2-4 2.7-1.6 5-2.9 8.5-2.9 3.4 0 5.8 1.4 8.5 2.9 3.3 1.9 7 4 13.1 4 6.2 0 9.9-2.1 13.2-4 2.7-1.6 5-2.9 8.5-2.9 3.4 0 5.8 1.4 8.5 2.9 3.3 1.9 7 4 13.1 4 .8 0 1.5-.7 1.5-1.5s-.7-1.5-1.5-1.5z"/></svg>