<svg xmlns="http://www.w3.org/2000/svg" viewBox="0 0 238.9 119.7"><path d="M238.7 107c.1 0 .1 0 0 0 .1-.2.1-.3.1-.3v-.7c0-.1 0-.1-.1-.2 0 0 0-.1-.1-.1 0-.1-.1-.1-.1-.2 0 0 0-.1-.1-.1l-.1-.1c-.2-.2-15.4-12.1-37.6-19.6h-.1c-.1 0-.1-.1-.2-.1h-.3c-10.1-3.4-21.6-5.8-33.8-5.8-27.4 0-51.1 12.1-63.7 19.9-2.6-6.4-3.8-14.1-2.2-23.8 3.5-20.7 20-45.3 48.9-73.1.4-.4.6-1.1.4-1.6-.2-.6-.8-.9-1.4-.9H94.6c-.5 0-1 .3-1.3.8-.3.5-.3 1 0 1.5.3.4 23.9 44.4-92.6 114.7-.6.3-.9 1-.7 1.7s.8 1.1 1.4 1.1h217c.2 0 .4 0 .6-.1 9.5-4.1 18.7-11.8 19.1-12.1l.1-.1.1-.1c.4-.5.4-.6.4-.7zm-5.9-2.1H219c-1.1-2.1-4.2-7.5-10.1-13 11 4.6 19.4 9.9 23.9 13zm-42.2 11.8c4.6-3.8 7.1-7.3 8-8.9h15.7c-2.9 2.5-7.9 6.3-14.7 8.9h-9zm-15.8 0c2.1-3.9 2.9-7.1 3.2-8.9h17c-1.6 2.1-4.6 5.6-9.4 8.9h-10.8zm-13.6 0c-2.2-3.8-3.2-7-3.6-8.9h17.3c-.4 1.8-1.4 5.1-3.6 8.9h-10.1zm-14.3 0c-4.8-3.3-7.8-6.7-9.4-8.9h17c.3 1.7 1.2 4.9 3.2 8.9h-10.8zm-14 0c-6.8-2.6-11.8-6.4-14.7-8.9h15.7c.9 1.5 3.4 5.1 8 8.9h-9zm-18.3 0c-.7-.8-1.5-1.6-2.3-2.5-1.7-1.9-3.5-4-5.1-6.4h6.6c1.3 1.4 5.5 5.4 11.9 8.9h-11.1zm73.7-28.4c4.2 6.1 6.6 13.3 7.5 16.5h-17.7c-.2-2.9-.9-9.8-2.4-16.5h12.6zm-15.6 0c1.5 6.5 2.2 13.5 2.4 16.5h-17.7c.2-3.1.9-10.1 2.4-16.5h12.9zm-18.3 16.6h-17.7c.9-3.3 3.3-10.4 7.5-16.5h12.6c-1.5 6.6-2.2 13.5-2.4 16.5zM133 88.3h7.6c-4.1 6.7-6.3 13.8-7 16.5H117c2-3.5 7.1-10.8 16-16.5zm65.9 16.6c-.7-2.8-2.9-9.9-7-16.5h7.6c8.9 5.7 14 13 16.1 16.5h-16.7zm-9.8-19.6h-45.9c7.2-1.7 15-2.8 23-2.8 8.1 0 15.8 1.1 22.9 2.8zm-85.3 16.9c4.9-3.1 11.7-6.9 19.8-10.4-5.9 5.5-9.1 11-10.2 13.1h-8.2c-.2-.4-.4-.8-.7-1.1-.1-.6-.4-1.1-.7-1.6zm-9.7-68.7c6.5-15.7 4.3-26.1 2.8-30.5h47.7C116.8 30.2 101 54.4 97.4 75.1c-1.9 11.1-.1 19.9 3.1 27v.1c.8 1.8 1.6 3.4 2.6 4.9 0 .1.1.1.1.2 1.7 2.8 3.6 5.2 5.5 7.4.1.1.2.3.3.4.5.6 1 1.1 1.4 1.6H6.8c47-29 76.4-57 87.3-83.2zm124.3 83.2h-11.6c6.4-3.5 10.6-7.5 11.9-8.9H233c-3.4 2.6-9 6.4-14.6 8.9z"/><path d="M62.7 90.8h23.9c.8 0 1.5-.7 1.5-1.5s-.7-1.5-1.5-1.5H62.7c-.8 0-1.5.7-1.5 1.5s.6 1.5 1.5 1.5zm9.7-8.3h14.3c.8 0 1.5-.7 1.5-1.5s-.7-1.5-1.5-1.5H72.4c-.8 0-1.5.7-1.5 1.5s.7 1.5 1.5 1.5zM52.8 99.2H88c.8 0 1.5-.7 1.5-1.5s-.7-1.5-1.5-1.5H52.8c-.8 0-1.5.7-1.5 1.5s.7 1.5 1.5 1.5zm38.4 5.7h-51c-.8 0-1.5.7-1.5 1.5s.7 1.5 1.5 1.5h51c.8 0 1.5-.7 1.5-1.5s-.6-1.5-1.5-1.5zm16.6-93.1h20.7c.8 0 1.5-.7 1.5-1.5s-.7-1.5-1.5-1.5h-20.7c-.8 0-1.5.7-1.5 1.5s.7 1.5 1.5 1.5zm-.2 8.6h13c.8 0 1.5-.7 1.5-1.5s-.7-1.5-1.5-1.5h-13c-.8 0-1.5.7-1.5 1.5s.6 1.5 1.5 1.5zm-2 8.5h7.6c.8 0 1.5-.7 1.5-1.5s-.7-1.5-1.5-1.5h-7.6c-.8 0-1.5.7-1.5 1.5s.7 1.5 1.5 1.5z"/></svg>