<svg xmlns="http://www.w3.org/2000/svg" viewBox="0 0 53.8 158.4"><path d="M52.3 158.4c-.8 0-1.5-.7-1.5-1.5V29.7c0-.8.7-1.5 1.5-1.5s1.5.7 1.5 1.5v127.2c0 .8-.6 1.5-1.5 1.5zM47.6 31.2c-.6 0-1.1-.3-1.3-.8L32.6 3H21.2L7.5 30.4c-.4.7-1.3 1-2 .7-.7-.4-1-1.3-.7-2L19 .8c.2-.5.8-.8 1.3-.8h13.2c.6 0 1.1.3 1.3.8L49 29.1c.4.7.1 1.6-.7 2-.2.1-.5.1-.7.1zM1.5 158.4c-.8 0-1.5-.7-1.5-1.5V29.7c0-.8.7-1.5 1.5-1.5s1.5.7 1.5 1.5v127.2c0 .8-.7 1.5-1.5 1.5z"/><path d="M33.5 53.2H20.3c-.8 0-1.5-.7-1.5-1.5v-9.3h-3.2c-.8 0-1.5-.7-1.5-1.5v-9.6H1.5c-.8 0-1.5-.7-1.5-1.5s.7-1.5 1.5-1.5h14.1c.8 0 1.5.7 1.5 1.5v9.6h3.2c.8 0 1.5.7 1.5 1.5v9.3H32v-9.3c0-.8.7-1.5 1.5-1.5h3.2v-9.6c0-.8.7-1.5 1.5-1.5h14.1c.8 0 1.5.7 1.5 1.5s-.7 1.5-1.5 1.5H39.7v9.6c0 .8-.7 1.5-1.5 1.5H35v9.3c0 .8-.7 1.5-1.5 1.5zm2-42.3H18.3c-.8 0-1.5-.7-1.5-1.5s.7-1.5 1.5-1.5h17.2c.8 0 1.5.7 1.5 1.5s-.6 1.5-1.5 1.5zm-8.6 59.9c-.8 0-1.5-.7-1.5-1.5V63c0-.8.7-1.5 1.5-1.5s1.5.7 1.5 1.5v6.3c0 .9-.7 1.5-1.5 1.5zm14.2.2c-.8 0-1.5-.7-1.5-1.5v-6.7c0-.8.7-1.5 1.5-1.5s1.5.7 1.5 1.5v6.7c0 .8-.7 1.5-1.5 1.5zm-28.4 0c-.8 0-1.5-.7-1.5-1.5v-6.7c0-.8.7-1.5 1.5-1.5s1.5.7 1.5 1.5v6.7c0 .8-.6 1.5-1.5 1.5zm14.2 17c-.8 0-1.5-.7-1.5-1.5v-6.3c0-.8.7-1.5 1.5-1.5s1.5.7 1.5 1.5v6.3c0 .8-.7 1.5-1.5 1.5zm14.2.2c-.8 0-1.5-.7-1.5-1.5V80c0-.8.7-1.5 1.5-1.5s1.5.7 1.5 1.5v6.7c0 .8-.7 1.5-1.5 1.5zm-28.4 0c-.8 0-1.5-.7-1.5-1.5V80c0-.8.7-1.5 1.5-1.5s1.5.7 1.5 1.5v6.7c0 .8-.6 1.5-1.5 1.5zm14.2 17c-.8 0-1.5-.7-1.5-1.5v-6.3c0-.8.7-1.5 1.5-1.5s1.5.7 1.5 1.5v6.3c0 .8-.7 1.5-1.5 1.5zm14.2.1c-.8 0-1.5-.7-1.5-1.5v-6.7c0-.8.7-1.5 1.5-1.5s1.5.7 1.5 1.5v6.7c0 .9-.7 1.5-1.5 1.5zm-28.4 0c-.8 0-1.5-.7-1.5-1.5v-6.7c0-.8.7-1.5 1.5-1.5s1.5.7 1.5 1.5v6.7c0 .9-.6 1.5-1.5 1.5zm14.2 17c-.8 0-1.5-.7-1.5-1.5v-6.3c0-.8.7-1.5 1.5-1.5s1.5.7 1.5 1.5v6.3c0 .9-.7 1.5-1.5 1.5zm14.2.2c-.8 0-1.5-.7-1.5-1.5v-6.7c0-.8.7-1.5 1.5-1.5s1.5.7 1.5 1.5v6.7c0 .8-.7 1.5-1.5 1.5zm-28.4 0c-.8 0-1.5-.7-1.5-1.5v-6.7c0-.8.7-1.5 1.5-1.5s1.5.7 1.5 1.5v6.7c0 .8-.6 1.5-1.5 1.5zm14.2 17c-.8 0-1.5-.7-1.5-1.5v-6.3c0-.8.7-1.5 1.5-1.5s1.5.7 1.5 1.5v6.3c0 .8-.7 1.5-1.5 1.5zm14.2.2c-.8 0-1.5-.7-1.5-1.5v-6.7c0-.8.7-1.5 1.5-1.5s1.5.7 1.5 1.5v6.7c0 .8-.7 1.5-1.5 1.5zm-28.4 0c-.8 0-1.5-.7-1.5-1.5v-6.7c0-.8.7-1.5 1.5-1.5s1.5.7 1.5 1.5v6.7c0 .8-.6 1.5-1.5 1.5z"/></svg>