<svg id="Layer_1" xmlns="http://www.w3.org/2000/svg" viewBox="0 0 93.8 19.2"><style>.st0{opacity:.8}.st1{fill:#4d4d4f}.st2{fill:#96d7e3}.st3{fill:#f06461}.st4{fill:#3d3d3d}.st5{fill:#e5e5e5}.st6{fill:#58595b}.st7{fill:#3ef5f5}.st8{fill:#ef6360}.st9{fill:#d8d8d8}.st10{fill:#4a4b4c}.st11{stroke-linejoin:round}.st11,.st12{fill:none;stroke:#3ef5f5;stroke-width:3;stroke-linecap:round;stroke-miterlimit:10}.st13{fill:#fff}</style><path class="st4" d="M46.4 0c-2.8 0-4.7 2-4.7 5v9.2c0 3 1.9 5 4.7 5 2.8 0 4.7-2 4.7-4.8V4.9c0-2.8-1.9-4.9-4.7-4.9zm0 17c-1.4 0-2.3-1-2.3-2.7V4.9c0-1.7.9-2.7 2.3-2.7s2.3 1 2.3 2.5v9.8c0 1.5-.9 2.5-2.3 2.5zM60.6 0c-2.1 0-3.6 1.1-4.3 2.9-.2.6-.3 1.3-.3 2V18c0 .7.5 1.2 1.2 1.2h.2c.5-.1 1-.6 1-1.2V4.8c0-.9.3-1.7.9-2.1.3-.3.8-.4 1.3-.4 1.3 0 2.2 1 2.2 2.5V18c0 .7.5 1.2 1.2 1.2s1.2-.5 1.2-1.2V4.9C65.1 2 63.3 0 60.6 0zM36.8 14c0-1.8-2.4-1.8-2.4 0-.1 1.9-.9 3-2.2 3-1.3 0-2.1-.9-2.1-2.4V4.7c0-1.5.8-2.4 2.1-2.4 1.2 0 2.1 1 2.1 2.9 0 1.6 2.4 1.7 2.4 0C36.6 2 34.8 0 32.2 0c-2.7 0-4.6 1.9-4.6 4.8v9.7c0 2.9 1.8 4.8 4.6 4.8.3 0 .6 0 .9-.1h.2c1.5-.3 2.6-1.4 3.2-3 .2-.6.3-1.2.4-2-.1-.1-.1-.2-.1-.2zM21.5 0c-.7 0-1.2.5-1.2 1.2v7c0 1.4-.9 2.4-2.1 2.4-1.3 0-2.1-1-2.1-2.4v-7c0-.7-.5-1.2-1.2-1.2s-1.2.5-1.2 1.2v7c0 2 1.1 4.1 3.3 4.6V18c0 .7.5 1.2 1.2 1.2s1.2-.5 1.2-1.2v-5.2c2.2-.5 3.3-2.6 3.3-4.6v-7c0-.6-.5-1.2-1.2-1.2zM4.6 0s-.1 0 0 0C1.7 0 0 2 0 4.9V18c0 .7.5 1.2 1.2 1.2s1.2-.5 1.2-1.2v-5.8h2.1c2.8 0 4.6-1.9 4.6-4.6V4.9C9.1 2.1 7.3 0 4.6 0zm2 7.7c0 1.4-.8 2.3-2.2 2.3h-2V4.8c0-1.5.8-2.6 2.1-2.6s2.1 1 2.1 2.6v2.9z"/><path class="st8" d="M76 19.1c1.5-.4 2.7-1.5 3.2-3.2.2-.5.3-1.1.3-1.7V14c0-1.8-2.4-1.8-2.4 0-.1 1.9-.9 3-2.2 3-1.3 0-2.1-.9-2.1-2.4V4.7c0-1.5.8-2.4 2.1-2.4 1.2 0 2.1 1 2.1 2.8 0 1.6 2.4 1.6 2.4 0C79.2 2 77.5 0 74.9 0c-2.7 0-4.5 1.9-4.5 4.8v9.6c0 2.9 1.8 4.8 4.5 4.8.3 0 .6 0 .9-.1h.2zM89.2 0c-2.7 0-4.6 2-4.6 4.9V18c0 .7.5 1.2 1.2 1.2S87 18.7 87 18v-5.4h4.3V18c0 .7.5 1.2 1.2 1.2s1.2-.5 1.2-1.2V4.9C93.8 2 91.9 0 89.2 0zm2.1 10.4H87V4.8c0-1.6.8-2.5 2.2-2.5 1.4 0 2.2.9 2.2 2.5v5.6z"/></svg>