<svg id="Layer_1" xmlns="http://www.w3.org/2000/svg" viewBox="0 0 165 70.2"><style>.st0{opacity:.8}.st1{fill:#4d4d4f}.st2{fill:#96d7e3}.st3{fill:#f06461}.st4{fill:#3d3d3d}.st5{fill:#e5e5e5}.st6{fill:#58595b}.st7{fill:#3ef5f5}.st8{fill:#ef6360}.st9{fill:#d8d8d8}.st10{fill:#4a4b4c}.st11{stroke-linejoin:round}.st11,.st12{fill:none;stroke:#3ef5f5;stroke-width:3;stroke-linecap:round;stroke-miterlimit:10}.st13{fill:#fff}</style><path class="st4" d="M117.6.1c-7 0-11.9 5.1-11.9 12.7V36c0 7.6 4.9 12.7 11.9 12.7s11.9-5.1 11.9-12.2V12.3C129.4 5.2 124.6.1 117.6.1zm0 42.9c-3.4 0-5.8-2.6-5.8-6.7V12.5c0-4.2 2.4-6.7 5.8-6.7s5.7 2.6 5.7 6.3v24.7c0 3.6-2.3 6.2-5.7 6.2zm35.9-43h-.1c-5.3 0-9.1 2.9-10.7 7.4-.5 1.5-.8 3.2-.8 5v33.3c0 1.7 1.4 3 3 3 .2 0 .4 0 .6-.1 1.4-.3 2.4-1.5 2.4-3V12.1c0-2.4.8-4.3 2.3-5.4.9-.7 1.9-1 3.2-1 3.4 0 5.5 2.6 5.5 6.4v33.5c0 1.7 1.4 3.1 3.1 3.1 1.7 0 3.1-1.4 3.1-3.1V12.4C165 5.2 160.4.1 153.5 0zM93.2 35.4c0-4.6-6.1-4.5-6.1-.1-.1 4.9-2.2 7.7-5.6 7.7-3.4 0-5.3-2.3-5.3-6.1V11.8c0-3.8 2-6.1 5.3-6.1 3.1 0 5.3 2.5 5.3 7.2 0 4.1 6.1 4.2 6.1 0C92.7 5.1 88.1 0 81.5 0 74.6 0 70 4.9 70 12.1v24.4c0 7.3 4.7 12.1 11.5 12.1.8 0 1.5-.1 2.2-.2h.5c3.8-.8 6.7-3.5 8.1-7.5.5-1.5.8-3.1.9-4.9v-.6zM54.6 0c-1.7 0-3 1.3-3 3v17.8c0 3.5-2.2 6.1-5.4 6.1s-5.3-2.6-5.3-6.1V3.1c0-1.7-1.4-3.1-3.1-3.1-1.7 0-3.1 1.4-3.1 3.1v17.8c0 5 2.8 10.3 8.4 11.7v13.2c0 1.7 1.4 3 3 3 1.7 0 3-1.4 3-3V32.5c5.6-1.4 8.4-6.6 8.4-11.7V3c.1-1.6-1.3-3-2.9-3zm-43 0h-.2C4.4 0 0 5.1 0 12.5v33.2c0 1.7 1.4 3 3 3 1.7 0 3-1.4 3-3V31h5.3c7 0 11.5-4.7 11.5-11.6v-6.9C22.9 5.2 18.5.1 11.6 0zm5.2 19.5c0 3.6-2.1 5.8-5.6 5.8H6.1v-13c0-3.9 2-6.5 5.3-6.5h.1c3.3 0 5.3 2.6 5.3 6.5v7.2z"/><path class="st8" d="M4.3 70.1c1.1-.3 2-1.1 2.3-2.3.1-.4.2-.8.2-1.3v-.2C6.8 65 5 65 5 66.3c0 1.4-.6 2.2-1.6 2.2s-1.5-.7-1.5-1.8v-7.3c0-1.1.6-1.8 1.5-1.8s1.5.7 1.5 2.1c0 1.2 1.8 1.2 1.8 0-.1-2.3-1.4-3.8-3.3-3.8-2 0-3.4 1.4-3.4 3.5v7.1C0 68.6 1.4 70 3.3 70c.2 0 .5 0 .7-.1.2.3.2.3.3.2zm24.1-14H28c-1.3.1-2.3.9-2.7 2.1-.2.4-.2.9-.2 1.5v9.7c0 .5.4.9.9.9s.9-.4.9-.9v-9.8c0-1 .5-1.7 1.2-1.8h.4c1 0 1.6.7 1.6 1.9v9.8c0 .5.4.9.9.9s.9-.4.9-.9v-9.7c-.1-2.2-1.4-3.7-3.5-3.7zm22.3 13.2V57c0-.5.3-.8.8-.8H54c2.1 0 3.4 1.5 3.4 3.6v6.8c0 2.1-1.3 3.6-3.4 3.6h-2.5c-.5-.1-.8-.4-.8-.9zm3.3-.9c1 0 1.6-.7 1.6-1.9v-6.8c0-1.1-.6-1.9-1.6-1.9h-1.5v10.6H54zM15.6 56.1c-2 0-3.4 1.4-3.4 3.6v9.7c0 .5.4.9.9.9s.9-.4.9-.9v-4h3.2v4c0 .5.4.9.9.9s.9-.4.9-.9v-9.6c0-2.3-1.4-3.7-3.4-3.7zm1.6 7.7H14v-4.1c0-1.2.6-1.9 1.6-1.9s1.6.7 1.6 1.9v4.1zm24-7.7c-2 0-3.3 1.4-3.3 3.6v9.7c0 .5.4.9.9.9s.9-.4.9-.9v-4h3.2v4c0 .5.4.9.9.9s.9-.4.9-.9v-9.6c-.2-2.3-1.5-3.7-3.5-3.7zm1.6 7.7h-3.2v-4.1c0-1.2.6-1.9 1.6-1.9s1.6.7 1.6 1.9v4.1zm23.8-7.7c-2 0-3.3 1.4-3.3 3.6v9.7c0 .5.4.9.9.9s.9-.4.9-.9v-4h3.2v4c0 .5.4.9.9.9s.9-.4.9-.9v-9.6c-.1-2.3-1.5-3.7-3.5-3.7zm1.6 7.7H65v-4.1c0-1.2.6-1.9 1.6-1.9s1.6.7 1.6 1.9v4.1z"/></svg>